<?xml version="1.0" encoding="UTF-8"?>
<svg id="Calque_1" xmlns="http://www.w3.org/2000/svg" viewBox="0 0 800 800"><defs><style>.cls-1,.cls-2,.cls-3,.cls-4,.cls-5,.cls-6,.cls-7,.cls-8,.cls-9,.cls-10,.cls-11,.cls-12,.cls-13,.cls-14,.cls-15,.cls-16,.cls-17,.cls-18,.cls-19,.cls-20,.cls-21,.cls-22,.cls-23,.cls-24,.cls-25,.cls-26{fill:none;}.cls-1,.cls-3,.cls-5,.cls-27,.cls-10,.cls-28,.cls-29,.cls-22,.cls-30,.cls-23,.cls-31{stroke-linejoin:round;}.cls-1,.cls-3,.cls-5,.cls-6,.cls-7,.cls-8,.cls-10,.cls-11,.cls-12,.cls-32,.cls-13,.cls-14,.cls-15,.cls-16,.cls-19,.cls-20,.cls-30,.cls-23,.cls-24,.cls-25{stroke-linecap:round;}.cls-1,.cls-3,.cls-27,.cls-28,.cls-19,.cls-31{stroke:#1d1a3f;}.cls-1,.cls-7,.cls-29{stroke-width:.72px;}.cls-4{stroke-width:3px;}.cls-4,.cls-5,.cls-7,.cls-8,.cls-9,.cls-10,.cls-12,.cls-13,.cls-29,.cls-15,.cls-17,.cls-33,.cls-20,.cls-22,.cls-25{stroke:#fff;}.cls-4,.cls-6,.cls-7,.cls-8,.cls-9,.cls-11,.cls-12,.cls-32,.cls-13,.cls-34,.cls-14,.cls-15,.cls-16,.cls-17,.cls-18,.cls-35,.cls-33,.cls-36,.cls-37,.cls-19,.cls-20,.cls-21,.cls-38,.cls-24,.cls-25,.cls-26{stroke-miterlimit:10;}.cls-5,.cls-28,.cls-17,.cls-18,.cls-38,.cls-24,.cls-25{stroke-width:.75px;}.cls-27{stroke-width:1.44px;}.cls-27,.cls-39,.cls-28,.cls-32,.cls-34,.cls-35,.cls-30,.cls-31,.cls-38{fill:#fff;}.cls-6,.cls-8{stroke-width:.71px;}.cls-6,.cls-30,.cls-23{stroke:#1f1c3e;}.cls-9{stroke-width:.85px;}.cls-40{fill:#f2f2ff;}.cls-41{fill:#efb5b5;}.cls-42{fill:#eed6c9;}.cls-43{fill:#ffd7ca;}.cls-44{fill:#ffb283;}.cls-45{fill:#e6acad;}.cls-46{fill:#faeec9;}.cls-47{fill:#f0b50c;}.cls-48{fill:#80abbf;}.cls-49{fill:#7fa5bd;}.cls-50{fill:#9f6729;}.cls-51{fill:#91684b;}.cls-52{fill:#b9cfd8;}.cls-53{fill:#8bc2d3;}.cls-54{fill:#aeb0b2;}.cls-55{fill:#d30c44;}.cls-56{fill:#cfd0d3;}.cls-57{fill:#c4c4c4;}.cls-58{fill:#dae4e9;}.cls-59{fill:#dc1144;}.cls-60{fill:#e0dfdf;}.cls-61{fill:#1f1c3e;}.cls-62{fill:#1e1d3f;}.cls-63{fill:#3fc2ea;}.cls-64,.cls-29{fill:#1d1a3f;}.cls-65{fill:#1b0c12;}.cls-66{fill:#3f3f44;}.cls-67,.cls-36{fill:#a27d50;}.cls-68{fill:#a46d58;}.cls-69{fill:#562f07;}.cls-70{fill:#5ba376;}.cls-71{fill:#83b3c6;}.cls-10,.cls-19,.cls-20,.cls-22{stroke-width:.58px;}.cls-11,.cls-32{stroke:#7f8994;}.cls-13,.cls-14{stroke-width:.25px;}.cls-34,.cls-15,.cls-16,.cls-26{stroke-width:.5px;}.cls-34,.cls-18,.cls-38,.cls-24,.cls-26{stroke:#e0dfdf;}.cls-14,.cls-16{stroke:#1e1d3f;}.cls-35,.cls-21{stroke:#de0c44;}.cls-33{fill:#f1b7b7;}.cls-36{stroke:#141427;}.cls-37{fill:#3d69ab;stroke:#15162a;}.cls-30,.cls-23{stroke-width:.84px;}</style></defs><g><path class="cls-28" d="M250.89,359.59c7.08,0,12.82-5.74,12.82-12.82v-109.95s0,0,0,0c0-7.08-5.74-12.81-12.82-12.81h4.84c7.08,0,12.81,5.74,12.81,12.82v109.96c0,7.08-5.74,12.82-12.82,12.82h-4.83s0,0,0,0Z"/><path class="cls-28" d="M186.87,224h64.02c7.08,0,12.81,5.74,12.81,12.82v109.96c0,7.08-5.74,12.82-12.82,12.82h-64.02c-7.08,0-12.82-5.74-12.82-12.82v-109.95c0-7.08,5.74-12.82,12.82-12.82Z"/><path class="cls-28" d="M228.66,455.22h3.68v-95.63h-3.68v95.63Z"/><path class="cls-28" d="M217.74,456.44h10.92v-96.85h-10.92v96.85Z"/><path class="cls-64" d="M232.34,359.59v5.72s-3.68,0-3.68,0l-10.92-2.99v-2.73s14.6,0,14.6,0Z"/><path class="cls-27" d="M238.38,462h4.03v-6.78h-4.03v6.78Z"/><path class="cls-27" d="M204.65,462h33.74v-6.78h-33.74v6.78Z"/><path class="cls-46" d="M186.35,343.38h65.53v-102.98h-65.53v102.98Z"/><path class="cls-21" d="M226.06,329.62l-12.38-9.22v-14.96s17.05-21.08,17.05-21.08h12.88v-10.68"/><path class="cls-35" d="M227.11,329.29c0-.84-.68-1.52-1.52-1.52s-1.52,.68-1.52,1.52c0,.84,.68,1.52,1.52,1.52s1.52-.68,1.52-1.52Z"/><path class="cls-35" d="M213.73,321.63c.84-.06,1.47-.79,1.41-1.63-.06-.84-.79-1.47-1.63-1.41-.84,.06-1.47,.79-1.41,1.63s.79,1.47,1.63,1.41Z"/><path class="cls-35" d="M213.73,307.59c.84-.06,1.47-.79,1.41-1.63-.06-.84-.79-1.47-1.63-1.41-.84,.06-1.47,.79-1.41,1.63,.06,.84,.79,1.47,1.63,1.41Z"/><path class="cls-35" d="M231.94,284.65c0-.84-.68-1.52-1.52-1.52s-1.52,.68-1.52,1.52,.68,1.52,1.52,1.52,1.52-.68,1.52-1.52Z"/><path class="cls-35" d="M245.06,284.65c0-.84-.68-1.52-1.52-1.52s-1.52,.68-1.52,1.52c0,.84,.68,1.52,1.52,1.52s1.52-.68,1.52-1.52Z"/><path class="cls-35" d="M245.06,272.91c0-.84-.68-1.52-1.52-1.52s-1.52,.68-1.52,1.52c0,.84,.68,1.52,1.52,1.52s1.52-.68,1.52-1.52Z"/><path class="cls-3" d="M243.61,306.66l-9.74-7.86h-14.12s-12.73-11.39-12.73-11.39v-18.18s-9.53-8-9.53-8"/><path class="cls-31" d="M245.06,306.66c0-.84-.68-1.52-1.52-1.52s-1.52,.68-1.52,1.52,.68,1.52,1.52,1.52,1.52-.68,1.52-1.52Z"/><path class="cls-31" d="M234.93,298.83c0-.84-.68-1.52-1.52-1.52s-1.52,.68-1.52,1.52,.68,1.52,1.52,1.52,1.52-.68,1.52-1.52Z"/><path class="cls-31" d="M220.9,298.83c0-.84-.68-1.52-1.52-1.52s-1.52,.68-1.52,1.52,.68,1.52,1.52,1.52,1.52-.68,1.52-1.52Z"/><path class="cls-31" d="M208.7,287.1c0-.84-.68-1.52-1.52-1.52s-1.52,.68-1.52,1.52,.68,1.52,1.52,1.52,1.52-.68,1.52-1.52Z"/><path class="cls-31" d="M208.7,269.61c0-.84-.68-1.52-1.52-1.52s-1.52,.68-1.52,1.52,.68,1.52,1.52,1.52,1.52-.68,1.52-1.52Z"/><path class="cls-31" d="M198.81,260.63c0-.84-.68-1.52-1.52-1.52s-1.52,.68-1.52,1.52c0,.84,.68,1.52,1.52,1.52s1.52-.68,1.52-1.52Z"/><path class="cls-12" d="M195.66,303.18h9.02s21.38-27.28,21.38-27.28v-12.68s9.5-10.1,9.5-10.1"/><path class="cls-33" d="M237.08,253.12c0-.84-.68-1.52-1.52-1.52s-1.52,.68-1.52,1.52,.68,1.52,1.52,1.52,1.52-.68,1.52-1.52Z"/><path class="cls-33" d="M227.65,263.48c0-.84-.68-1.52-1.52-1.52s-1.52,.68-1.52,1.52c0,.84,.68,1.52,1.52,1.52s1.52-.68,1.52-1.52Z"/><path class="cls-33" d="M227.65,275.9c0-.84-.68-1.52-1.52-1.52s-1.52,.68-1.52,1.52c0,.84,.68,1.52,1.52,1.52s1.52-.68,1.52-1.52Z"/><path class="cls-33" d="M206.94,302.83c0-.84-.68-1.52-1.52-1.52s-1.52,.68-1.52,1.52c0,.84,.68,1.52,1.52,1.52s1.52-.68,1.52-1.52Z"/><path class="cls-33" d="M195.2,302.83c0-.84-.68-1.52-1.52-1.52s-1.52,.68-1.52,1.52c0,.84,.68,1.52,1.52,1.52s1.52-.68,1.52-1.52Z"/></g><line class="cls-27" x1="316.04" y1="664.19" x2="119" y2="664.19"/><path class="cls-53" d="M191.44,345.96c-.15,.02-.29,.04-.44,.04-1.66,0-3-1.34-3-3,0-1.5,1.11-2.74,2.55-2.95l-.13-.86c-.09-.62-.68-1.05-1.3-.96l-25.17,3.82c-.62,.09-1.05,.68-.96,1.3l.26,1.69c.09-.02,.18-.05,.28-.06,1.54-.17,2.92,.94,3.09,2.48,.17,1.54-.94,2.92-2.48,3.09-.02,0-.03,0-.05,0l.2,1.31c.09,.62,.68,1.05,1.3,.96l25.17-3.82c.62-.09,1.05-.68,.96-1.3l-.27-1.75Z"/><g><path class="cls-54" d="M76.73,461.74c-1.8-.43-2.9-2.24-2.47-4.04l.78-3.21h.06c18.13,.66,26.55-4.12,26.55-4.12l8.46,11.46h-32.6c-.27,0-.53-.03-.79-.1Z"/><path class="cls-54" d="M161.36,461.55h-33.6c-1.42,0-2.57-1.1-2.57-2.46v-4.59c19.5,.85,28.28-3.78,28.88-4.11l7.29,11.17Z"/><path class="cls-29" d="M76.57,450.62l34.58-141.93h42.45v141.7c-.58,.33-9.19,4.96-27.86,4.11v-93.27s-24.74,89.39-24.74,89.39c0,0-8.03,4.56-25.32,3.93h-.06l.96-3.92Z"/><path class="cls-1" d="M120.4,330.6l5.34,1.58v29.05"/><path class="cls-63" d="M154.32,299.28v26.33s-7.11-9.3-7.11-9.3c0,0-8.22,11.39-24.16,10.92-15.02-.45-14.54-11.39-14.54-11.39l4.02-21.84-.5-11.44-15.23,33.3c.77-2.47-2.59-5.73-7.11-7.25-4.4-1.48-8.63-.81-9.65,1.48l18.64-47.35c2.28-5.56,7.69-9.18,13.7-9.18h36.93c7.91,0,14.77,5.49,16.49,13.21l9.04,41.87c-1.37-1.88-5.58-2.83-9.81-2.11-4.84,.82-8.47,3.09-8.13,5.57l-2.6-12.81Z"/><path class="cls-48" d="M8.82,454.02c-5.62-1.37-9.07-7.05-7.7-12.67l15.95-65.39c1.15-4.7,5.35-8,10.19-8h45.27s-21.07,86.37-21.07,86.37H11.31c-.84,0-1.68-.1-2.49-.3Z"/><path class="cls-7" d="M.41,441.35l15.95-65.39c1.15-4.7,5.35-8,10.19-8h45.27"/><path class="cls-7" d="M46.41,455c-.85,0-1.69-.1-2.52-.3-5.69-1.39-9.19-7.13-7.8-12.82l15.91-65.72c1.16-4.75,5.42-8.1,10.31-8.1"/><path class="cls-7" d="M28.95,441.87l15.91-65.72"/><path class="cls-7" d="M23.34,441.87l15.91-65.72"/><path class="cls-7" d="M17.74,441.87l15.91-65.72"/><path class="cls-7" d="M12.14,441.87l15.91-65.72"/><path class="cls-7" d="M6.53,441.87l15.91-65.72"/><path class="cls-1" d="M48.53,458.93c0-1.33-1.08-2.41-2.41-2.41s-2.41,1.08-2.41,2.41,1.08,2.41,2.41,2.41,2.41-1.08,2.41-2.41Z"/><path class="cls-1" d="M16.87,458.93c0-1.33-1.08-2.41-2.41-2.41s-2.41,1.08-2.41,2.41,1.08,2.41,2.41,2.41,2.41-1.08,2.41-2.41Z"/><path class="cls-1" d="M54.41,366.7l4.53-19.06c.64-2.67,3.03-4.56,5.78-4.56h7.71c.39,0,.78,.05,1.15,.14,2.61,.64,4.21,3.27,3.57,5.88l-25.42,104.69"/><path class="cls-68" d="M63.04,349.31c-1.15-.41-1.74-1.68-1.33-2.82l2.48-6.77c.67-1.82,2.39-3.03,4.32-3.05l2.23-.05,9.24-26.27c.83-2.48,5.2-3.25,9.75-1.72,4.55,1.52,7.93,4.82,7.1,7.29l-.26,.55-13.86,28.78c-.53,1.02-1.57,1.66-2.72,1.68l-4.78,.06-.62,1.51c-.3,.75-1.04,1.22-1.85,1.2l-9.05-.25c-.22-.01-.45-.05-.66-.13Z"/><path class="cls-19" d="M68.49,336.65l4.56-.05"/><path class="cls-19" d="M65.76,342.34l-1.37,3.75c-.08,.22-.13,.45-.13,.68-.04,1.22,.91,2.24,2.13,2.28"/><path class="cls-19" d="M68.75,342.4l-1.37,3.74c-.08,.22-.13,.45-.13,.68-.04,1.22,.91,2.24,2.13,2.28"/><path class="cls-19" d="M71.63,342.49l-1.37,3.75c-.08,.22-.13,.45-.13,.68-.04,1.22,.91,2.24,2.13,2.28"/><path class="cls-19" d="M78.83,340.74l-.82,2.19c-1.55,0-3.04,1.26-3.04,2.81v.91"/><path class="cls-68" d="M165.05,306.53c4.23-.71,8.22,.24,9.59,2.12l6.69,28.12,4.46,6.6c.79,1.17,.83,2.7,.09,3.91l-2.78,4.24c-.31,.49-.84,.79-1.41,.82l-8.75,.51c-1.62,.1-3.1-.85-3.56-2.27l-12.22-38.35c-.48-2.53,2.97-4.87,7.89-5.7Z"/><path class="cls-19" d="M182.34,345.8l.39,5.86"/><path class="cls-19" d="M178.99,346.07l.39,6.08"/><path class="cls-19" d="M175.51,346.36l.39,6.08"/><path class="cls-19" d="M172.46,346.43l.39,6.08"/><path class="cls-68" d="M122.98,253.56l5.27-10.59,11.1,.6v9.99h-16.37Z"/><path class="cls-68" d="M136.42,242.09c-1.08,.32-2.24-.21-2.68-1.25l-1.02-2.49c-.44-1.06-.12-2.29,.78-3l2.71-2.16s.55-.56,1.66-.43c.77,.08,1.46,.54,1.82,1.22l2.83,5.17c.18,.34,.06,.75-.28,.94l-1.04,.57-4.79,1.44Z"/><path class="cls-19" d="M138.28,235.49l-1.67,.7"/><path class="cls-64" d="M138.64,238.72c.28-.12,.35-.59,.15-1.05-.2-.46-.59-.74-.87-.61-.28,.12-.35,.59-.15,1.05,.2,.46,.59,.74,.87,.61Z"/><path class="cls-19" d="M131.91,244.13l-1.42,.61c-.83,.36-1.79,.28-2.55-.21"/><path class="cls-68" d="M126.69,242.89l-.05-.11c-.6-1.38,.04-2.98,1.42-3.58l.3-.15c.07-.04,.15-.07,.23-.09,.77-.25,1.59,.17,1.84,.94l1.26,3.81-1.42,.61c-1.38,.59-2.98-.05-3.58-1.42Z"/><path class="cls-19" d="M127.74,240.55c.87-.38,1.88,.02,2.27,.88"/><path class="cls-64" d="M127.82,239.33c-.31-1.17-.47-2.31-.21-3.07,.44-1.3,7.85-5.72,8.71-6.15,1.19-.6,4.13,.22,2.74,3.11-.83-.64-1.99-.65-2.83-.04l-2.71,2.16c-.9,.72-1.22,1.94-.78,3l1.02,2.48c.44,1.04,1.6,1.58,2.68,1.25l4.78-1.44,.81,1.88c.13,.3,.2,.62,.21,.95,.04,1.43-1.09,2.61-2.51,2.65l-3.89,.1c-1.32,.05-2.94-.25-3.72-1.25l-1.67-5.08c-.03-.08-.06-.15-.09-.23-.37-.71-1.26-.99-1.97-.62l-.55,.28Z"/><path class="cls-63" d="M140.44,249.46l2.34,4.1h-20.9s1.97-4.01,1.97-4.01c.29-.59,.89-.97,1.55-.97h13.52c.62,0,1.2,.33,1.5,.87Z"/><path class="cls-22" d="M100.29,309.53c.83-2.69-2.82-6.23-7.74-7.89-4.79-1.61-9.15-.64-10.26,1.85l-2.62,6.49c1.09-2.43,5.56-3.14,10.23-1.57,4.78,1.61,8.11,5.06,7.29,7.68l3.1-6.56Z"/><path class="cls-10" d="M111.21,268.8h37.17c1.66-10.97,10.26-12.11,10.26-12.11"/><path class="cls-10" d="M148.36,268.79l8.13,42.61"/><path class="cls-10" d="M110.38,266.56l1.66,17.2"/><path class="cls-22" d="M155.52,307.15c-.52-2.53,3.24-5.45,8.18-6.28,4.94-.84,9.81,.54,10.32,3.07l1.22,5.44c-.77-2.36-5.44-3.66-10.19-2.86-4.92,.83-8.82,3.18-8.34,5.7l-1.19-5.07h0Z"/><path class="cls-20" d="M142.78,253.33h-20.66"/></g><g><path class="cls-67" d="M288.58,429.5s-34.4,26.97-57.02,23.2l14.18,37.37s55.23-13.7,61.42-54.39l-18.57-6.19Z"/><g><circle class="cls-61" cx="195.65" cy="434.41" r="5.13"/><circle class="cls-61" cx="200" cy="440.04" r="5.63"/><g><circle class="cls-61" cx="219.23" cy="432.54" r="5.13"/><circle class="cls-61" cx="216.24" cy="436.62" r="5.13"/><circle class="cls-61" cx="206.18" cy="442.94" r="5.13"/><circle class="cls-41" cx="189.19" cy="603.71" r="55.32"/><path class="cls-4" d="M149.67,602.95c0,22.2,17.99,40.19,40.19,40.19,22.2,0,40.19-17.99,40.19-40.19,0-10.62-4.12-20.28-10.84-27.46-7.33-7.83-17.77-12.73-29.35-12.73-3.12,0-6.16,.36-9.08,1.03-17.82,4.12-31.11,20.09-31.11,39.16Z"/><path class="cls-54" d="M220.04,649.33c6.49,2.89,13.68,4.5,21.24,4.5,28.87,0,52.36-23.49,52.36-52.36s-23.49-52.36-52.36-52.36c-14.83,0-28.03,2.53-37.56,12.47-.5,.52-8.18-2.09-7.71-2.71,11.05-14.77,25.45-17.96,45.27-17.96,33.39,0,60.56,27.17,60.56,60.56,0,33.39-27.17,60.56-60.56,60.56-10.44,0-20.26-2.65-28.84-7.32-1.79-.97,6.15-6.03,7.6-5.38Z"/><path class="cls-56" d="M132.64,473.16h81.66s29.47,85.11,29.47,85.11h69.15s21.68,86.3,21.68,86.3c.6,2.38-1.23,4.67-3.68,4.61l-43.22-1.01c-3.83-.09-7.12-2.77-7.98-6.51l-15.2-66.17h-66.25c-8.01,0-15.1-5.19-17.51-12.83l-22.99-72.9c-1.2-3.79-4.71-6.37-8.69-6.37h-16.45c-2.82,0-5.11-2.29-5.11-5.11h0c0-2.82,2.29-5.11,5.11-5.11Z"/><path class="cls-36" d="M275.9,523.88c15.54-.43,30.09-2.32,34.43,15.06,0,0,20.22,86.5,20.4,87.06h-41.42s-14.46-60.68-14.46-60.68c-.12-.54-.32-1.06-.63-1.52-.94-1.38-33.55,.13-35.52-.11l-4.08-37.41,41.3-2.39Z"/><path class="cls-36" d="M273.4,525.58c14.39-1.18,27.49,8.31,30.84,22.35l17.79,72.97s-6.35,2.74-20.19,4.85c-10.16,1.55-20.25,.27-20.33,.21l-11.15-53.21c-.38-1.79-1.97-3.06-3.8-3.02l-42.73,1.4c-18.81,.45-41.19-12.72-45.21-31.1l-1.64-7.85,96.43-6.61Z"/><g><path class="cls-30" d="M348,643.83v.4s-54.2,0-54.2,0l-4.77-17.74c20.33,2.7,40.53-5.65,40.53-5.65l14.36,13.58c2.56,2.47,4.02,5.85,4.08,9.41h0Z"/><path class="cls-23" d="M293.05,641.35h54.62"/><path class="cls-23" d="M336.49,640.98c-.02-3.64,1.63-7.08,4.48-9.33"/><path class="cls-23" d="M326.45,628.62l5.97-5.68c.55-.52,1.41-.51,1.94,.02,.52,.52,.54,1.35,.06,1.89"/><path class="cls-23" d="M328.94,630.78l5.97-5.68c.55-.52,1.41-.51,1.94,.02,.52,.51,.55,1.35,.06,1.89"/></g><path class="cls-37" d="M177.63,535.54s3.57,37.51,49.97,35.47l38.67-1.26,35.38-43.31s-4.27-3.36-19.51-2.83l-41.68,2-62.84,9.93Z"/><path class="cls-59" d="M174.86,461.73l56.7-9.02,14.63,37.09c2.25,5.6,1.03,12-3.12,16.37l-2.6,2.76v18.91s-62.84,8.03-62.84,8.03l-2.77-74.14Z"/><g><path class="cls-2" d="M210.83,546.22c-.18-.07-.37-.14-.56-.2h0c.15,0,.34,.08,.55,.2Z"/><circle class="cls-2" cx="189.76" cy="603" r="52.36" transform="translate(-435.85 693.72) rotate(-80.78)"/><path class="cls-56" d="M129.2,603c0,33.39,27.17,60.56,60.56,60.56,33.39,0,60.56-27.17,60.56-60.56,0-15.63-5.95-29.9-15.71-40.66-.33-.13-.63-.29-.9-.47-4.99-3.4-10-6.78-15.01-10.16-1.96-1.33-3.93-2.65-5.89-3.98-.37-.25-1.29-1.11-1.98-1.51-.18-.07-.37-.14-.56-.2-4.43,.03-8.85,.07-13.28,.1-7.77,.06-15.55,.11-23.32,.17-.36,0-.71,0-1.07,0-1.5,.01-3,.09-4.49,.15-22.73,8.73-38.91,30.79-38.91,56.56Zm8.2,0c0-28.87,23.49-52.36,52.36-52.36s52.36,23.49,52.36,52.36c0,28.87-23.49,52.36-52.36,52.36-28.87,0-52.36-23.49-52.36-52.36Z"/><path class="cls-67" d="M144.88,521.77c.25-5.71,1.71-11.34,3.97-16.57,.21-.48,.42-.96,.64-1.43,.83-2.25,1.65-4.51,2.48-6.76,1.72-4.7,3.45-9.39,5.17-14.09,1.17-3.18,2.34-6.36,3.5-9.54,1.08-2.94,8.95-13.26,17.98-11.94,.18,.03,.36,.04,.54,.06,2.31,.26,4.53,1.3,6.16,2.98,1.88,1.94,2.95,4.6,2.92,7.31,0,.84-.12,1.69-.34,2.5l-7.41,37.08s35.35,10.18,35.35,10.18c4.34,1.25,7.92,4.17,11.14,7.22,1.56,1.47,12.1,19.96,13.39,25.15,.55,2.21,1.49,5.89-.35,7.76-1.29,1.31-3.69,1.35-5.41,.65-.33-.13-.63-.29-.9-.47-4.99-3.4-10-6.78-15.01-10.16-1.96-1.33-3.93-2.65-5.89-3.98-.37-.25-1.29-1.11-1.98-1.51-.21-.12-.41-.2-.55-.2h0c-4.43,.03-8.85,.07-13.28,.1-7.77,.06-15.55,.11-23.32,.17-.36,0-.71,0-1.07,0-1.5,.01-3,.09-4.49,.15-4.1,.17-8.13,.23-12.02-1.57-3.92-1.81-6.9-5.08-8.72-8.96-2.06-4.38-2.7-9.34-2.49-14.14Z"/></g><path class="cls-6" d="M230.36,559.64c1.06,.84,2.1,1.84,3.26,2.53,1.63,.97,3.55,1.23,5.38,.65,2.7-.85,2.62-4.28,2.2-6.53-.6-3.2-2.08-6.12-3.58-8.98-2.13-4.08-4.26-8.15-6.39-12.23-2.43-4.83-6.9-10.34-13.97-12.87l-31.59-9.14c-8.86-2.35-9.27-2.34-14.95-.61"/><path class="cls-6" d="M209.01,538.41c-1.79,2.31-1.37,5.64,.94,7.43"/><path class="cls-6" d="M225.22,541.42l5.52,13.33c.61,1.48,.27,3.19-.87,4.32"/><path class="cls-6" d="M216.67,538.05l4.59,10.3c.65,1.46,.35,3.18-.75,4.34"/><path class="cls-32" d="M202.28,431.13h-1.72c-2.55,0-4.63,2.07-4.63,4.63v1.72c0,2.56,2.07,4.63,4.63,4.63h1.72c2.56,0,4.63-2.07,4.63-4.63v-1.72c0-2.56-2.07-4.63-4.63-4.63Z"/><path class="cls-11" d="M205.12,441.12s3.14,2.38,6.88,1.69"/><rect class="cls-32" x="211.95" y="441.72" width="2.57" height="1.39" rx=".54" ry=".54" transform="translate(-63.75 36.86) rotate(-8.6)"/><path class="cls-61" d="M224.65,423.58c-2.23-5.71-11.9-5.53-19.19,.83-2.09,1.82-7.27,6.1-12.79,11.38,.52,.69,.92,1.47,1.14,2.3,.13,.51,.89-.57,1.06-.07,.61-.78-.43,1.95-.29,2.17,.07,.11,.14,.2,.2,.29,.14,.13,.43,.38,.61,.55,.29,.18,.73,.46,.81,.51,1.11,.62,2.3,1.14,3.43,1.68,.7,.34,1.42,.61,2.14,.9,.85,.35,1.47-.56,2.01,.1-.26-2.04,.3-2.74,1.58-4.33-.52-3.88,1.73-8.19,6.78-8.19,1.59,0,2.9,.44,3.94,1.15,.86-.52,3.02-1.06,3.25-1.17l.09-.03c3.07-.46,7.28-2.83,5.23-8.06Z"/><path class="cls-67" d="M217.35,443.47v12.57c0,3.9-3.16,7.07-7.07,7.07s-7.07-3.17-7.07-7.07v-18.71l14.13,6.13h0Z"/><path class="cls-61" d="M203.22,437.33l14.13,6.13v10.96l-8.57-5.37c-3.52-2.87-5.57-7.18-5.57-11.72h0Z"/><path class="cls-67" d="M218.84,431.63v8.52c0,3.06-2.49,5.55-5.55,5.55h-1.28c-3.05,0-5.89-1.58-7.48-4.18h-3.85c-2.04-.05-3.65-1.74-3.61-3.78,.05-1.97,1.63-3.56,3.61-3.61h1.15c.54,0,1.08,.17,1.52,.49l6.4-7.32c4.07,4.59,9.08,4.34,9.08,4.34h0Z"/><path class="cls-6" d="M202.61,438.36c0-1.32-1.07-2.38-2.38-2.38"/><path class="cls-6" d="M218.38,432.73s-2.18-.24-3.6,1.38c-.92,1.04-.95,3.6,.23,5.29"/><path class="cls-61" d="M210.35,437.24c.37,0,.67-.41,.67-.91s-.3-.91-.67-.91-.67,.41-.67,.91,.3,.91,.67,.91Z"/><path class="cls-61" d="M216.55,437.24c.37,0,.67-.41,.67-.91s-.3-.91-.67-.91-.67,.41-.67,.91,.3,.91,.67,.91Z"/><path class="cls-6" d="M214.56,442.18s-2.47,.64-2.78-1.14"/><path class="cls-6" d="M207.29,433.63s1.87-1.46,4.24-1"/><path class="cls-30" d="M340.47,643.89v.4s-54.2,0-54.2,0l-4.77-18.32c20.33,2.7,40.53-5.07,40.53-5.07l14.36,13.58c2.56,2.47,4.02,5.85,4.08,9.41h0Z"/><path class="cls-23" d="M285.52,641.4h54.62"/><path class="cls-23" d="M328.96,641.03c-.02-3.64,1.63-7.08,4.48-9.33"/><path class="cls-23" d="M318.92,628.67l5.97-5.68c.55-.52,1.41-.51,1.94,.02,.52,.52,.54,1.35,.06,1.89"/><path class="cls-23" d="M321.41,630.83l5.97-5.68c.55-.52,1.41-.51,1.94,.02,.52,.51,.55,1.35,.06,1.89"/><circle class="cls-4" cx="189.19" cy="603" r="8.41"/><circle class="cls-61" cx="213.82" cy="419.04" r="5.13"/><circle class="cls-61" cx="205.12" cy="418.26" r="5.13"/><circle class="cls-61" cx="197.07" cy="422.17" r="5.13"/><circle class="cls-61" cx="194.87" cy="429.29" r="5.13"/><circle class="cls-61" cx="204.69" cy="426.58" r="5.13"/><path class="cls-61" d="M197.4,429.29c0,2.83,5.95-1.66,8.78-1.66s5.13-2.29,5.13-5.13-2.29-5.13-5.13-5.13c-2.83,0-8.78,9.08-8.78,11.91Z"/><circle class="cls-8" cx="209.82" cy="435.62" r="2.91"/><circle class="cls-8" cx="217.72" cy="435.85" r="2.81"/><path class="cls-8" d="M212.73,436.09s1.26-.57,2.18,.13"/></g><circle class="cls-61" cx="201.06" cy="430.23" r="5.13"/></g><g><path class="cls-67" d="M302.5,425.88l-13.78,4.01s.86,1.86,1.5,2.53c1.16,1.36,2.74,2.37,4.57,2.81l5.89,1.39c2.34,.56,4.72,.1,6.65-1.13,0,0,.96-.51,1.69-1.42l-6.51-8.18Z"/><g><path class="cls-67" d="M303.64,431.33l-.64-.08-.35-.04-.75-.09-.43-.05-1.06-.13c.52-6.14-3.62-11.24-3.8-11.46-.1-.13-.29-.15-.41-.04-.13,.1-.14,.29-.04,.41,.04,.05,4.16,5.11,3.67,11.01l-1.81-.22-.75-.09-3.73-.45-.16-.02-.75-.09-.62-.08-.77-.09c-.79-.1-1.59-.08-2.38,.03-.05,0-.11,.02-.16,.03-.36-.96-.56-1.99-.56-3.06,.02-5.65,.79-13.7,3.73-14.54,1.48-.42,2.01,5.38,4.2,4.71,2.58-.79,7.44-19.17,10.56-18.39,3.12,.78,10.64,11.88,9.72,18.28-.5,3.48-3.35,10.49-6.17,15.55-.33,.6-.73,1.14-1.18,1.63-.41-.43-.85-.84-1.33-1.18-.29-.21-.6-.4-.91-.56-.97-.52-2.03-.86-3.12-.99Zm4.77-14.57c.07-.03,.13-.09,.16-.17,.76-2.11,3.15-10.93,3.36-12.42,.02-.16-.09-.31-.25-.33-.16-.02-.31,.09-.33,.25-.21,1.48-2.58,10.22-3.34,12.3-.06,.15,.02,.32,.18,.38,.07,.03,.15,.02,.22,0Zm-3.7-3.31c.07-.03,.13-.09,.16-.17,.14-.4,.37-1.03,.66-1.8,1.7-4.63,3.52-9.66,3.68-10.76,.02-.16-.09-.31-.25-.33-.16-.02-.31,.09-.33,.25-.16,1.14-2.43,7.32-3.65,10.64-.28,.77-.51,1.4-.66,1.8-.05,.15,.02,.32,.18,.38,.07,.03,.15,.02,.22,0Z"/><path class="cls-65" d="M311.35,404.09c-.21,1.48-2.58,10.22-3.34,12.3-.06,.15,.02,.32,.18,.38,.07,.03,.15,.02,.22,0,.07-.03,.13-.09,.16-.17,.76-2.11,3.15-10.93,3.36-12.42,.02-.16-.09-.31-.25-.33-.16-.02-.31,.09-.33,.25Z"/><path class="cls-65" d="M304.98,411.28c-.28,.77-.51,1.4-.66,1.8-.05,.15,.02,.32,.18,.38,.07,.03,.15,.02,.22,0,.07-.03,.13-.09,.16-.17,.14-.4,.37-1.03,.66-1.8,1.7-4.63,3.52-9.66,3.68-10.76,.02-.16-.09-.31-.25-.33-.16-.02-.31,.09-.33,.25-.16,1.14-2.43,7.32-3.65,10.64Z"/><path class="cls-65" d="M296.16,419.85c.04,.05,4.16,5.11,3.67,11.01l.58,.07c.52-6.14-3.62-11.24-3.8-11.46-.1-.13-.29-.15-.41-.04-.13,.1-.14,.29-.04,.41Z"/></g><path class="cls-65" d="M300.37,431.41c.02-.16,.03-.32,.05-.48l-.58-.07c-.01,.16-.03,.32-.05,.48-.02,.16,.09,.31,.26,.33,.05,0,.11,0,.15-.02,.09-.04,.16-.13,.17-.23Z"/></g></g><g><path class="cls-9" d="M381.03,471.47v-31.8"/><g><path class="cls-60" d="M639.26,433.87l-180.33-.02v-57.02c1.44-11.72,1.44-17.26,1.44-17.26l49.39-25.96,45.32-104.51c8.61-18.13,24.33-27.33,24.33-27.33l59.85-1.77v233.87Z"/><g><path class="cls-66" d="M363.67,464.23c10.1,10.22,26.47,10.22,36.57,0,10.1-10.21,10.1-26.78,0-36.99-10.1-10.21-26.48-10.21-36.58,0-10.1,10.22-10.1,26.78,0,36.99Z"/><path class="cls-38" d="M330.09,370.02c0-5.81,2.75-11.29,7.43-14.79l26.85-20.01,87.41-111.38c7.26-10.51,18.18-19.8,30.25-19.8l109.84-.88c-13.18,0-24.32,8.67-29.49,20.68l-51.76,110s-51,25.94-51.63,32.64c-.05,.57-.06,2.95-.06,3.53l.06,62.91h-130.11l1.22-62.91Z"/><path class="cls-58" d="M364.84,401.91c-1.15,0-2.08,.94-2.08,2.11v13.15c0,1.16,.93,2.11,2.08,2.11h55.13c1.15,0,2.08-.94,2.08-2.11v-13.15c0-1.16-.93-2.11-2.08-2.11h-55.13Z"/><path class="cls-18" d="M362.01,399.84c-1.15,0-2.08,.94-2.08,2.11v13.15c0,1.16,.93,2.11,2.08,2.11h55.13c1.15,0,2.08-.94,2.08-2.11v-13.15c0-1.16-.93-2.11-2.08-2.11h-55.13Z"/><path class="cls-62" d="M379.24,404.18c.61,0,1.09-.5,1.09-1.11,0-.61-.49-1.11-1.09-1.11s-1.09,.5-1.09,1.11,.49,1.11,1.09,1.11Z"/><path class="cls-62" d="M372.35,404.18c.61,0,1.09-.5,1.09-1.11,0-.61-.49-1.11-1.09-1.11s-1.09,.5-1.09,1.11c0,.61,.49,1.11,1.09,1.11Z"/><path class="cls-62" d="M365.46,404.18c.6,0,1.09-.5,1.09-1.11,0-.61-.49-1.11-1.09-1.11-.6,0-1.09,.5-1.09,1.11s.49,1.11,1.09,1.11Z"/><path class="cls-62" d="M413.7,404.18c.6,0,1.09-.5,1.09-1.11,0-.61-.49-1.11-1.09-1.11s-1.09,.5-1.09,1.11c0,.61,.49,1.11,1.09,1.11Z"/><path class="cls-62" d="M406.81,404.18c.6,0,1.09-.5,1.09-1.11,0-.61-.49-1.11-1.09-1.11s-1.09,.5-1.09,1.11c0,.61,.49,1.11,1.09,1.11Z"/><path class="cls-62" d="M399.92,404.18c.61,0,1.09-.5,1.09-1.11,0-.61-.49-1.11-1.09-1.11s-1.09,.5-1.09,1.11c0,.61,.49,1.11,1.09,1.11Z"/><path class="cls-62" d="M393.03,404.18c.6,0,1.09-.5,1.09-1.11,0-.61-.49-1.11-1.09-1.11-.6,0-1.09,.5-1.09,1.11,0,.61,.49,1.11,1.09,1.11Z"/><path class="cls-62" d="M386.14,404.18c.6,0,1.09-.5,1.09-1.11,0-.61-.49-1.11-1.09-1.11-.6,0-1.09,.5-1.09,1.11s.49,1.11,1.09,1.11Z"/><path class="cls-62" d="M382.69,407.81c.61,0,1.09-.5,1.09-1.11s-.49-1.11-1.09-1.11-1.09,.5-1.09,1.11c0,.61,.49,1.11,1.09,1.11Z"/><path class="cls-62" d="M375.8,407.81c.6,0,1.09-.5,1.09-1.11,0-.61-.49-1.11-1.09-1.11s-1.09,.5-1.09,1.11c0,.61,.49,1.11,1.09,1.11Z"/><path class="cls-62" d="M368.91,407.81c.6,0,1.09-.5,1.09-1.11,0-.61-.49-1.11-1.09-1.11-.6,0-1.09,.5-1.09,1.11,0,.61,.49,1.11,1.09,1.11Z"/><path class="cls-62" d="M410.26,407.81c.61,0,1.09-.5,1.09-1.11,0-.61-.49-1.11-1.09-1.11-.6,0-1.09,.5-1.09,1.11s.49,1.11,1.09,1.11Z"/><path class="cls-62" d="M403.37,407.81c.6,0,1.09-.5,1.09-1.11,0-.61-.49-1.11-1.09-1.11-.6,0-1.09,.5-1.09,1.11,0,.61,.49,1.11,1.09,1.11Z"/><path class="cls-62" d="M396.47,407.81c.6,0,1.09-.5,1.09-1.11,0-.61-.49-1.11-1.09-1.11-.6,0-1.09,.5-1.09,1.11,0,.61,.49,1.11,1.09,1.11Z"/><path class="cls-62" d="M389.58,407.81c.6,0,1.09-.5,1.09-1.11,0-.61-.49-1.11-1.09-1.11s-1.09,.5-1.09,1.11c0,.61,.49,1.11,1.09,1.11Z"/><path class="cls-62" d="M379.24,411.44c.61,0,1.09-.5,1.09-1.11,0-.61-.49-1.11-1.09-1.11-.6,0-1.09,.5-1.09,1.11s.49,1.11,1.09,1.11Z"/><path class="cls-62" d="M372.35,411.44c.61,0,1.09-.5,1.09-1.11,0-.61-.49-1.11-1.09-1.11s-1.09,.5-1.09,1.11c0,.61,.49,1.11,1.09,1.11Z"/><path class="cls-62" d="M365.46,411.44c.6,0,1.09-.5,1.09-1.11,0-.61-.49-1.11-1.09-1.11-.6,0-1.09,.5-1.09,1.11,0,.61,.49,1.11,1.09,1.11Z"/><path class="cls-62" d="M413.7,411.44c.6,0,1.09-.5,1.09-1.11s-.49-1.11-1.09-1.11-1.09,.5-1.09,1.11,.49,1.11,1.09,1.11Z"/><path class="cls-62" d="M406.81,411.44c.6,0,1.09-.5,1.09-1.11,0-.61-.49-1.11-1.09-1.11s-1.09,.5-1.09,1.11c0,.61,.49,1.11,1.09,1.11Z"/><path class="cls-62" d="M399.92,411.44c.61,0,1.09-.5,1.09-1.11s-.49-1.11-1.09-1.11c-.6,0-1.09,.5-1.09,1.11,0,.61,.49,1.11,1.09,1.11Z"/><path class="cls-62" d="M393.03,411.44c.6,0,1.09-.5,1.09-1.11,0-.61-.49-1.11-1.09-1.11s-1.09,.5-1.09,1.11,.49,1.11,1.09,1.11Z"/><path class="cls-62" d="M386.14,411.44c.6,0,1.09-.5,1.09-1.11,0-.61-.49-1.11-1.09-1.11s-1.09,.5-1.09,1.11c0,.61,.49,1.11,1.09,1.11Z"/><path class="cls-62" d="M382.69,415.07c.61,0,1.09-.5,1.09-1.11,0-.61-.49-1.11-1.09-1.11s-1.09,.5-1.09,1.11,.49,1.11,1.09,1.11Z"/><path class="cls-62" d="M375.8,415.07c.6,0,1.09-.5,1.09-1.11,0-.61-.49-1.11-1.09-1.11-.6,0-1.09,.5-1.09,1.11,0,.61,.49,1.11,1.09,1.11Z"/><path class="cls-62" d="M368.91,415.07c.6,0,1.09-.5,1.09-1.11,0-.61-.49-1.11-1.09-1.11s-1.09,.5-1.09,1.11c0,.61,.49,1.11,1.09,1.11Z"/><path class="cls-62" d="M410.26,415.07c.61,0,1.09-.5,1.09-1.11s-.49-1.11-1.09-1.11-1.09,.5-1.09,1.11c0,.61,.49,1.11,1.09,1.11Z"/><path class="cls-62" d="M403.37,415.07c.6,0,1.09-.5,1.09-1.11s-.49-1.11-1.09-1.11c-.6,0-1.09,.5-1.09,1.11,0,.61,.49,1.11,1.09,1.11Z"/><path class="cls-62" d="M396.47,415.07c.6,0,1.09-.5,1.09-1.11,0-.61-.49-1.11-1.09-1.11-.6,0-1.09,.5-1.09,1.11s.49,1.11,1.09,1.11Z"/><path class="cls-62" d="M389.58,415.07c.6,0,1.09-.5,1.09-1.11,0-.61-.49-1.11-1.09-1.11s-1.09,.5-1.09,1.11c0,.61,.49,1.11,1.09,1.11Z"/><path class="cls-39" d="M581.12,333.63h0l-188.37-.08,53.43-99.54c2.02-4.8,6.68-7.91,11.84-7.91h112.24c6,0,10.86,4.92,10.86,10.98v96.56Z"/><path class="cls-58" d="M575.72,333.63h-201.49s72.97-95.99,72.97-95.99c2.95-4.43,7.23-7.91,11.31-7.91h106.84c5.73,0,10.37,4.92,10.37,10.99v92.92Z"/><path class="cls-62" d="M499.67,265.72h9.8c5.99,0,10.84,4.91,10.84,10.97v56.94s-9.8,0-9.8,0v-56.94c0-6.06-4.86-10.96-10.84-10.96Z"/><path class="cls-57" d="M448.81,276.69h0c0-6.06,4.85-10.97,10.84-10.97h40.02c5.99,0,10.84,4.91,10.84,10.97v56.94s-61.7,0-61.7,0v-56.94Z"/><path class="cls-71" d="M512.44,333.63h0l17.68-.03c3.33-.03,6.01-2.76,6.01-6.13v-20.99c0-2,1.6-3.62,3.58-3.62h5.81c1.98,0,3.58,1.62,3.58,3.62v20.97c0,3.41-2.74,6.18-6.11,6.18h-30.56Z"/><path class="cls-53" d="M343.86,397.54c5.67,0,10.27-4.65,10.27-10.39,0-5.74-4.6-10.39-10.27-10.39-5.67,0-10.27,4.65-10.27,10.39s4.6,10.39,10.27,10.39Z"/><path class="cls-53" d="M442.39,397.54c5.67,0,10.27-4.65,10.27-10.39,0-5.74-4.6-10.39-10.27-10.39-5.67,0-10.27,4.65-10.27,10.39,0,5.74,4.6,10.39,10.27,10.39Z"/><path class="cls-18" d="M442.89,405.81c1.42,0,2.57-1.16,2.57-2.6s-1.15-2.59-2.57-2.59c-1.42,0-2.57,1.16-2.57,2.59,0,1.43,1.15,2.6,2.57,2.6Z"/><path class="cls-70" d="M403.53,333.63h0l3.44-16.62c2.68-12.94,13.96-22.21,27.03-22.21h40.2c13.07,0,24.35,9.27,27.03,22.21l3.44,16.62h-101.13Z"/><path class="cls-42" d="M463.91,294.69c-16.19,4.22-20.2,0-20.2,0v-10.55s12.84,0,12.84,0l7.36,10.55Z"/><path class="cls-62" d="M449.03,296.4h0l5.74-6.34c1.14-1.25,1.77-2.88,1.77-4.58v-1.34h-12.84v10.55s1.43,1.24,5.33,1.71Z"/><path class="cls-42" d="M442.55,274.44h0l9.34,1.83,3.69,1.42v1.32c.29-.71,.97-1.17,1.73-1.17h.55c1.71,.05,3.09,1.44,3.13,3.17,.05,1.8-1.35,3.29-3.13,3.34h-2.29s-1.39,2.44-1.39,2.44c-.74,1.3-2.12,2.11-3.6,2.11h-5.02c-.15,0-.29,0-.44-.02-2.25-.25-3.88-2.3-3.63-4.57l1.06-9.86Z"/><path class="cls-47" d="M455.95,277.69h0v3.72c-.88,0-1.85-.72-1.85-1.61v-.98c0-.77-.52-1.45-1.27-1.63l.09-1.83,3.03,2.33Z"/><path class="cls-16" d="M456.68,281.1c0-.96,.77-1.73,1.72-1.73"/><path class="cls-16" d="M449.05,284.2c-.28,.91-1.23,1.43-2.14,1.15"/><path class="cls-16" d="M447.02,283.5c-1.11,0-.75-3.35-.46-5.22,0-.05,.01-.11,.01-.16,0-.59-.47-1.08-1.06-1.08h-2.96"/><path class="cls-62" d="M449.39,280.67c.36,0,.65-.47,.65-1.05,0-.58-.29-1.05-.65-1.05-.36,0-.65,.47-.65,1.05,0,.58,.29,1.05,.65,1.05Z"/><path class="cls-62" d="M444.19,280.54c.31,0,.57-.41,.57-.92,0-.51-.25-.92-.57-.92s-.57,.41-.57,.92c0,.51,.25,.92,.57,.92Z"/><path class="cls-17" d="M454.69,226.15h116.62c5.7,0,10.33,4.68,10.33,10.45v184.52s-22.09,0-22.09,0c-2.06,0-3.97-1.08-5.05-2.86-8.58-14.21-24.41-23.76-42.53-23.76-.78,0-1.55,.02-2.32,.05l.1-60.93"/><g><path class="cls-66" d="M547.1,446.21h0s-66.51,0-66.51,0v-.56c.15-18.58,15.17-33.51,33.53-33.35,18.37,.16,33.13,15.34,32.98,33.92Z"/><path class="cls-45" d="M513.47,471.89c14.28,0,25.86-11.71,25.86-26.16,0-14.45-11.58-26.16-25.86-26.16-14.28,0-25.86,11.71-25.86,26.16,0,14.45,11.58,26.16,25.86,26.16Z"/><path class="cls-25" d="M513.47,467.4c11.83,0,21.43-9.7,21.43-21.67,0-11.97-9.59-21.67-21.43-21.67-11.83,0-21.43,9.7-21.43,21.67,0,11.97,9.59,21.67,21.43,21.67Z"/><path class="cls-24" d="M513.52,450.17c2.37,0,4.29-1.94,4.29-4.34s-1.92-4.34-4.29-4.34c-2.37,0-4.29,1.94-4.29,4.34s1.92,4.34,4.29,4.34Z"/><path class="cls-13" d="M489.06,466.93c-4.54-4.24-7.32-10.03-7.32-16.41"/></g><path class="cls-26" d="M509.76,333.56l-45.24,24.63c-2.6,1.34-5.59,4.95-5.59,9.1v66.58"/><path class="cls-17" d="M547.88,346.45c0-2.36,1.89-4.28,4.23-4.28h13.94c2.33,0,4.23,1.92,4.23,4.28"/><path class="cls-18" d="M464.52,358.19l-11.03,3.73c-4.53,1.51-10.05,2.33-15.73,2.33l-95.06-.52c-9.09,.32-5.54-8.31-5.54-8.31"/><path class="cls-18" d="M358.16,376.83h67.4"/><path class="cls-18" d="M509.88,333.63h0l17.68-.03c3.33-.03,6.01-2.76,6.01-6.13v-20.99c0-2,1.6-3.62,3.58-3.62h5.81c1.98,0,3.58,1.62,3.58,3.62v20.97c0,3.41-2.74,6.18-6.11,6.18h-30.56Z"/><path class="cls-26" d="M372.99,333.64h136.89"/><path class="cls-5" d="M446.75,245.19l9.98,9.69"/><path class="cls-5" d="M460.37,258.41l3.55,3.44"/><path class="cls-5" d="M471.89,269.59l36,34.95"/><path class="cls-5" d="M460.37,245.19l5.86,5.69"/><path class="cls-5" d="M470.84,255.36l33.64,32.65"/><path class="cls-39" d="M509.14,333.28l43.63-103.56h1.46s-43.85,104.09-43.85,104.09l-1.23-.53Z"/><path class="cls-18" d="M343.86,406.77c1.42,0,2.57-1.16,2.57-2.6s-1.15-2.59-2.57-2.59-2.57,1.16-2.57,2.59,1.15,2.6,2.57,2.6Z"/></g></g><path class="cls-60" d="M593.7,245.55h233.85v121.13c0,11.93-9.68,21.61-21.61,21.61h-190.41c-12.05,0-21.83-9.78-21.83-21.83v-120.92h0Z" transform="translate(393.7 1027.55) rotate(-90)"/><g><path class="cls-66" d="M754.76,446.39h0s-66.51,0-66.51,0v-.56c.15-18.58,15.17-33.51,33.53-33.35,18.37,.16,33.13,15.34,32.98,33.92Z"/><path class="cls-45" d="M721.13,472.07c14.28,0,25.86-11.71,25.86-26.16,0-14.45-11.58-26.16-25.86-26.16-14.28,0-25.86,11.71-25.86,26.16,0,14.45,11.58,26.16,25.86,26.16Z"/><path class="cls-25" d="M721.13,467.59c11.83,0,21.43-9.7,21.43-21.67,0-11.97-9.59-21.67-21.43-21.67-11.83,0-21.43,9.7-21.43,21.67,0,11.97,9.59,21.67,21.43,21.67Z"/><path class="cls-24" d="M721.18,450.35c2.37,0,4.29-1.94,4.29-4.34s-1.92-4.34-4.29-4.34c-2.37,0-4.29,1.94-4.29,4.34s1.92,4.34,4.29,4.34Z"/><path class="cls-13" d="M696.72,467.12c-4.54-4.24-7.32-10.03-7.32-16.41"/></g><g><path class="cls-58" d="M741.65,268.81c4.25,1.87,5.95-2.02,11.83-.79,1.57,.33,2.78,.97,3.76,1.78v-35.68c0-6.08-5.35-11.02-11.96-11.02h-130.94c-6.6,0-11.96,4.93-11.96,11.02v44.14c2.86-4.11,7.83-6.76,13.38-6.76h10.45s6-10.54,6-10.54l1.77-3.27c-.33-.61-.45-1.3-.34-1.98,.25-1.71,1.79-2.93,3.43-2.72,.31,.04,.61,.13,.89,.27,.55-1.4,2.29-2.29,4.2-2.05,2.14,.27,3.68,1.88,3.43,3.58-.03,.19-.08,.38-.15,.56l2.24,6.14c.03,.06,.04,.13,.04,.19,0,.29-.26,.52-.57,.52h-.84v.63c0,2.04-1.79,3.69-4,3.69h-1.21v4.97h9.6c8.79,0,15.9,6.56,15.9,14.65v10.17h13.31s.03-3.54,.03-3.54c-1.65-.31-2.87-1.47-2.87-2.83v-5.22c0-1.91,2.01-3.47,4.49-3.47h2.05c3.24,0,5.86,2.02,5.86,4.53v2.29s4.73,8.23,4.73,8.23h9.04c.5-8.71,8.31-15.53,17.77-15.53h9.09s-.09-.03-.09-.03v-6.68c-.81,.06-1.62-.08-2.37-.38-.87-.35-1.38-1.21-1.23-2.07l.85-5.92s.59-2.85,4.54-2.85c5.32,0,6.97,4.72,9.86,5.99Z"/><path class="cls-58" d="M745.28,335.45c6.6,0,11.96-4.93,11.96-11.02v-54.64c-.98-.81-2.19-1.45-3.76-1.78-5.88-1.23-7.58,2.66-11.83,.79-2.9-1.27-4.54-5.99-9.86-5.99-3.95,0-4.54,2.85-4.54,2.85l-.85,5.92c-.14,.87,.36,1.72,1.23,2.07,.74,.31,1.56,.44,2.37,.38v6.68l.09,.03h-9.09c-9.46,0-17.27,6.83-17.77,15.53h-9.04s-4.73-8.23-4.73-8.23v-2.29c0-2.5-2.62-4.53-5.86-4.53h-2.05c-2.48,0-4.49,1.55-4.49,3.47v5.22c0,1.36,1.22,2.52,2.87,2.83l-.03,3.54h-13.31s0-10.17,0-10.17c0-8.09-7.12-14.65-15.9-14.65h-9.6s0-4.97,0-4.97h1.21c2.21,0,4-1.65,4-3.69v-.63s.84,0,.84,0c.31,0,.57-.23,.57-.52,0-.06-.01-.13-.04-.19l-2.24-6.14c.07-.18,.12-.37,.15-.56,.25-1.71-1.28-3.32-3.43-3.58-1.91-.24-3.65,.65-4.2,2.05-.27-.14-.58-.23-.89-.27-1.64-.21-3.18,1.01-3.43,2.72-.11,.68,.02,1.37,.34,1.98l-1.77,3.27-6,10.54h-10.45c-5.55,0-10.52,2.66-13.38,6.76v46.19c0,6.08,5.35,11.02,11.96,11.02h130.94Z"/></g><path class="cls-70" d="M413.56,306.37l1.53,24.8c-3.77-.04-10.81,.34-14.16,.28-22.37-.37-34.75-19.69-34.71-35.62,.01-4.2,11.09-6.72,16.98-7.77,2.11-.38,4.22,.54,5.46,2.29,10.75,15.21,24.9,16.02,24.9,16.02Z"/><g><path class="cls-42" d="M370.84,284.25l14.91,2.62s-.69,2.05-1.28,2.83c-1.06,1.56-2.6,2.8-4.48,3.47l-6.02,2.14c-2.39,.85-4.94,.65-7.1-.43,0,0-1.07-.43-1.93-1.3l5.89-9.33Z"/><g><path class="cls-42" d="M367.1,291.49c-.31,.21-.61,.44-.89,.69-.47,.42-.89,.89-1.26,1.39-.53-.46-1.01-.98-1.43-1.57-3.54-4.98-7.34-12.02-8.26-15.6-1.69-6.6,4.92-19.11,8.1-20.28,3.18-1.17,10.38,17.55,13.18,18.08,2.38,.45,2.27-5.69,3.87-5.42,3.18,.55,4.91,8.9,5.58,14.82,.12,1.12,.03,2.23-.24,3.27-.06,0-.11-.01-.17-.01-.84-.03-1.68,.05-2.5,.24l-.79,.19-.64,.15-.77,.18-.16,.04-3.86,.9-.77,.18-1.87,.44c-1.18-6.13,2.55-11.91,2.59-11.96,.09-.14,.05-.34-.09-.43-.15-.1-.34-.05-.43,.09-.16,.25-3.93,6.07-2.68,12.45l-1.1,.26-.45,.1-.77,.18-.36,.08-.66,.16c-1.13,.26-2.2,.73-3.16,1.39Zm-3.28-16.14c.15-.08,.22-.26,.14-.42-1.03-2.1-4.52-11-4.91-12.52-.04-.17-.21-.27-.38-.22-.17,.04-.27,.21-.22,.38,.4,1.54,3.91,10.52,4.95,12.64,.04,.08,.11,.13,.19,.16,.07,.02,.16,.02,.23-.02Zm3.5-3.89c.15-.08,.22-.26,.14-.42-.2-.4-.51-1.04-.9-1.82-1.66-3.34-4.74-9.57-5.04-10.74-.04-.17-.21-.26-.38-.22-.17,.04-.27,.21-.22,.38,.29,1.14,2.78,6.21,5.09,10.87,.38,.78,.7,1.41,.89,1.81,.04,.08,.11,.14,.19,.16,.07,.02,.15,.02,.23-.02Z"/><path class="cls-65" d="M359.05,262.42c.39,1.52,3.88,10.42,4.91,12.52,.08,.15,.01,.34-.14,.42-.07,.04-.16,.04-.23,.02-.08-.02-.15-.08-.19-.16-1.04-2.12-4.56-11.1-4.95-12.64-.04-.17,.06-.34,.22-.38,.17-.04,.34,.06,.38,.22Z"/><path class="cls-65" d="M366.56,269.23c.39,.78,.7,1.41,.9,1.82,.07,.15,.01,.34-.14,.42-.07,.04-.16,.04-.23,.02-.08-.02-.15-.08-.19-.16-.2-.4-.51-1.04-.89-1.81-2.31-4.66-4.8-9.72-5.09-10.87-.04-.17,.06-.34,.22-.38,.17-.04,.34,.06,.38,.22,.3,1.18,3.39,7.4,5.04,10.74Z"/><path class="cls-65" d="M376.79,277.21c-.04,.06-3.77,5.84-2.59,11.96l-.61,.14c-1.25-6.38,2.51-12.2,2.68-12.45,.09-.14,.28-.19,.43-.09,.14,.09,.18,.29,.09,.43Z"/></g><path class="cls-65" d="M373.7,289.81c-.04-.17-.07-.33-.1-.49l.61-.14c.03,.16,.06,.33,.1,.49,.04,.17-.06,.33-.23,.37-.06,.01-.11,.01-.16,0-.1-.03-.18-.11-.21-.22Z"/></g><path class="cls-34" d="M386.72,332.67s65.39-.23,78.18,.17l-18.16-8.06c-3.96-2.18-8.39-3.32-12.89-3.32h-24.41c-6.57,0-12.92,2.42-17.85,6.81l-4.87,4.4Z"/><polygon class="cls-39" points="400.81 298.66 395.83 294.76 375.1 321.12 379.92 326.16 400.81 298.66"/><path class="cls-71" d="M377.93,333.56h0l-5.36-.03c-3.33-.03-6.01-2.76-6.01-6.13v-20.99c0-2-1.6-3.62-3.58-3.62h-5.82c-1.98,0-3.58,1.62-3.58,3.62v20.97c0,3.41,2.74,6.18,6.11,6.18h18.25Z"/><path class="cls-18" d="M375.36,333.56h0l-5.35-.03c-3.33-.03-6.01-2.76-6.01-6.13v-20.99c0-2-1.61-3.62-3.59-3.62h-5.81c-1.98,0-3.59,1.62-3.59,3.62v20.97c0,3.41,2.74,6.18,6.11,6.18h18.23Z"/><path class="cls-47" d="M451.88,276.46s1.93,3.12,4.15,2.39c3.64-1.18,4.05-5.65,1.79-7.31-2.16-1.58-3.86-1.21-6-.85-2.82,.48-3.94-.13-3.94-.13,.27-.32-.34-3.43-3.97-3.1-3.28,.3-4.46,4.73-.71,7.45,3.26,2.37,8.68,1.55,8.68,1.55Z"/><path class="cls-47" d="M454.55,280.8l.34-2.75-3.01-1.78c.28,2.03,2.66,4.53,2.66,4.53Z"/><g><path class="cls-14" d="M594.22,302.22c-1.32-3.68-4.54-2.56-4.54-2.56"/><path class="cls-14" d="M597.33,300.96c-1.32-3.68-4.55-2.78-4.55-2.78"/><path class="cls-14" d="M600.24,299.92c-1.27-3.69-4.9-2.59-4.9-2.59"/></g><g><path class="cls-62" d="M629.75,346.06c.33-.28,.66-.57,.98-.87,0,0,4.57,14.32,19.17,23.4-1.25,1.53-2.62,3.06-4.12,4.64-14.25-7.67-15.92-25.53-16.03-27.17Z"/><path class="cls-71" d="M593.3,308.86c19.1,2.31,20.31-10.15,20.31-10.15l.39-3.16,1.1-8.79c1.29-10.29,10.38-17.79,20.73-17.09h.06c15.7,1.05,27.58,14.64,26.52,30.34l-3.69,54.89-1.11,17.41c-20.79-7.4-26.89-27.12-26.89-27.12-9.15,8.61-24.65,6.8-24.65,6.8l11.55-16.32c-10-.67-18.29-7.39-21.3-16.95l-3.02-9.85Z"/><path class="cls-52" d="M660.24,286.97c.05,.12,.1,.24,.15,.37,.08,.18,.15,.37,.22,.55,.03,.08,.06,.15,.09,.23l-5.6,83.19c-.18-.07-.35-.15-.52-.23l5.66-84.11Z"/><path class="cls-52" d="M657.32,281.73c.16,.24,.33,.48,.49,.72l-5.88,87.32c-.17-.09-.35-.19-.52-.28l5.91-87.75Z"/><path class="cls-52" d="M614.14,341l.22-.34,.34-.51,.04-.06-.85,12.66c-.18,.03-.36,.06-.54,.09l.8-11.83Z"/><path class="cls-52" d="M610.5,346.56l.02-.02,.58-.89-.51,7.56c-.18,.02-.36,.04-.54,.05l.45-6.7Z"/><path class="cls-52" d="M606.86,352.12l.6-.91-.15,2.23c-.2,0-.38,.01-.54,.02l.09-1.33Z"/><path class="cls-52" d="M599.96,309.07c.18-.02,.36-.03,.54-.05l-1.09,16.12c-.17-.25-.33-.49-.49-.75l1.03-15.32Z"/><path class="cls-52" d="M596.69,309.13c.18,0,.36,.01,.54,0l-.69,10.2s-.03-.1-.05-.15c-.05-.16-.11-.32-.16-.48l-.24-.76,.59-8.82Z"/><path class="cls-52" d="M593.44,308.88c.18,.02,.36,.04,.54,.06l-.12,1.72-.31-.98-.14-.45,.02-.34Z"/><path class="cls-52" d="M614.36,340.66l.34-.51,44.83,3.02-.04,.53-45.13-3.04Z"/><path class="cls-52" d="M616.42,337.51l.34-.51,42.99,2.89-.04,.53-43.29-2.91Z"/><path class="cls-52" d="M608.44,333.15l51.52,3.47-.04,.54-50.15-3.38c-.38-.16-.75-.33-1.12-.52l-.22-.11Z"/><path class="cls-52" d="M647.95,367.29l9.96,.67-.04,.53-9.07-.61h0c-.17-.13-.34-.24-.51-.36l-.33-.23Z"/><path class="cls-52" d="M643.55,363.71l14.57,.98-.04,.53-13.9-.94c-.22-.19-.43-.39-.63-.58Z"/><path class="cls-52" d="M640.17,360.19l18.15,1.22-.04,.53-17.62-1.19c-.17-.19-.33-.38-.5-.57Z"/><path class="cls-52" d="M637.45,356.72l21.08,1.42-.04,.53-20.64-1.39c-.14-.19-.27-.38-.41-.56Z"/><path class="cls-52" d="M635.12,354.76l23.52,1.58-.04,.53-23.15-1.56c-.11-.19-.22-.37-.33-.56Z"/><path class="cls-52" d="M606.06,353.34l.34-.51,4.7,.32c-.17,.02-.33,.04-.51,.06-.18,.02-.36,.04-.54,.05-1.05,.1-1.95,.15-2.63,.18l-1.36-.09Z"/><path class="cls-52" d="M633.25,351.35l25.6,1.72-.04,.53-25.29-1.7c-.1-.19-.19-.37-.28-.56Z"/><path class="cls-52" d="M608.12,350.19l.34-.51,13.4,.9c-.41,.16-.83,.31-1.24,.45l-12.5-.84Z"/><path class="cls-52" d="M631.73,347.96l27.35,1.84-.04,.53-27.09-1.82c-.08-.19-.16-.38-.23-.55Z"/><path class="cls-52" d="M610.18,347.05l.32-.49,.02-.02,17.05,1.15-.29,.19c-.16,.1-.32,.2-.47,.3l-16.62-1.12Z"/><path class="cls-52" d="M612.24,343.9l.34-.51,46.72,3.14-.04,.53-47.02-3.17Z"/><path class="cls-49" d="M645.81,272.17s-3.6-1.77-9.1-2.24c-8.52-.74-13.96,3.53-13.96,3.53l4.16-6.57c.37-.58,1-.93,1.69-.93h11.63c.64-.01,1.24,.29,1.62,.81l3.96,5.41Z"/><path class="cls-15" d="M646.6,272.22s-3.73-1.78-9.42-2.27c-8.81-.76-14.55,3.35-14.55,3.35"/><path class="cls-15" d="M616.49,335.96c20.75,1.18,29.13-29.08,29.13-29.08"/><path class="cls-51" d="M627.4,263.44l8.42-7.62,4.58,10.13h-.17s-11.64,0-11.64,0c-.21,0-.41,.03-.61,.1l-.59-2.61Z"/><path class="cls-62" d="M627.4,263.44l4.77-4.31,.13,1.47c.04,.5,.05,1.01,.02,1.51l-.05,.84c-.06,1.23-.55,2.27-1.4,3h-2.28c-.21,0-.41,.03-.61,.1l-.59-2.61Z"/><path d="M631.63,254.78s1.46,3.09,3.4,2.53c3.19-.92,3.83-5.18,2.01-6.89-1.75-1.64-3.23-1.38-5.09-1.16-2.45,.3-3.37-.35-3.37-.35-1.05-.58-1.58-.94-3.17-.6-2.75,.97-2.12,3.42-1.12,4.49,2.64,2.46,7.34,1.98,7.34,1.98Z"/><path class="cls-51" d="M631.43,254.8l.91,.02h.11c1.3,.12,2.26,1.28,2.15,2.58-.12,1.3-1.27,2.26-2.57,2.15l-.25-.02-.05,.89c-.11,2.06-1.8,3.68-3.87,3.7-1.02,.01-2.03-.05-3.04-.19,0,0,.09-3.47-2.44-4.85,0,0,.14-5.02,1.68-6.53,0,0,1.91,2.45,7.38,2.25Z"/><path class="cls-16" d="M624.52,254.47c1.21-.03,2.43,.89,2.43,.89"/><path class="cls-62" d="M625.39,257.18c.23,.02,.44-.27,.47-.65s-.14-.69-.38-.71-.44,.27-.47,.65,.14,.69,.38,.71Z"/><path class="cls-16" d="M624.54,261.18c1.36,.03,1.44-.78,1.44-.78"/><path class="cls-16" d="M631.98,256.03h0c.58,.04,1.01,.54,.97,1.12"/></g><g><path class="cls-62" d="M717.56,348.14c.33-.28,.66-.57,.98-.87,0,0,4.57,14.32,19.17,23.4-1.25,1.53-2.62,3.06-4.12,4.64-14.25-7.67-15.92-25.53-16.03-27.17Z"/><path class="cls-71" d="M687.54,356.52c8.85-4.9,13.89-55.73,13.89-55.73l.39-3.16,1.1-8.79c1.29-10.29,10.38-17.79,20.73-17.09h.06c15.7,1.05,27.58,14.64,26.52,30.34l-3.69,54.89-1.11,17.41c-20.79-7.4-26.89-27.12-26.89-27.12-9.15,8.61-26.62,9.55-26.62,9.55l-4.39-.3Z"/><path class="cls-52" d="M722.93,356.84l23.52,1.58-.04,.53-23.15-1.56c-.11-.19-.22-.37-.33-.56Z"/><path class="cls-71" d="M733.62,274.25s-3.6-1.77-9.1-2.24c-8.52-.74-13.96,3.53-13.96,3.53l4.16-6.57c.37-.58,1-.93,1.69-.93h11.63c.64-.01,1.24,.29,1.62,.81l3.96,5.41Z"/><path class="cls-15" d="M734.41,274.3s-3.73-1.78-9.42-2.27c-8.81-.76-14.55,3.35-14.55,3.35"/><path class="cls-15" d="M712.92,338.62c17.66,.73,22.66-29.54,22.66-29.54"/><path class="cls-43" d="M715.21,265.52l8.42-7.62,4.58,10.13h-.17s-11.64,0-11.64,0c-.21,0-.41,.03-.61,.1l-.59-2.61Z"/><path class="cls-62" d="M715.21,265.52l4.77-4.31,.15,1.79c.03,.29,.03,.59,.01,.89l-.06,1.15c-.06,1.23-.55,2.27-1.4,3h-2.28c-.21,0-.41,.03-.61,.1l-.59-2.61Z"/><path class="cls-55" d="M719.44,256.87s1.46,3.09,3.4,2.53c3.19-.92,3.83-5.18,2.01-6.89-1.75-1.64-3.23-1.38-5.09-1.16-2.45,.3-3.37-.35-3.37-.35,.25-.29-.07-3.3-3.21-3.2-2.83,.09-4.12,4.27-1.09,7.09,2.64,2.46,7.34,1.98,7.34,1.98Z"/><path class="cls-43" d="M719.24,256.88l.91,.02h.11c1.3,.12,2.26,1.28,2.15,2.58-.12,1.3-1.27,2.26-2.57,2.15l-.25-.02-.05,.89c-.11,2.06-1.8,3.68-3.87,3.7-1.02,.01-2.03-.05-3.04-.19,0,0,.09-3.47-2.44-4.85,0,0,.14-5.02,1.68-6.53,0,0,1.91,2.45,7.38,2.25Z"/><path class="cls-16" d="M712.33,256.55c1.21-.03,2.43,.89,2.43,.89"/><path class="cls-62" d="M713.2,259.26c.23,.02,.44-.27,.47-.65,.03-.37-.14-.69-.38-.71s-.44,.27-.47,.65c-.03,.37,.14,.69,.38,.71Z"/><path class="cls-16" d="M712.35,263.26c1.36,.03,1.44-.78,1.44-.78"/><path class="cls-16" d="M719.79,258.11h0c.58,.04,1.01,.54,.97,1.12"/></g><path class="cls-57" d="M692.26,355.91c-.12,.3-.23,.6-.34,.91l30.18,2.03,20.46,1.38h0c5,.34,15.34-4.18,15.67-9.19l-.02-88.13c.34-5-3.45-9.33-8.45-9.67h0c-5-.34-9.33,3.45-9.67,8.45l-1.35,20.04c-.16,2.34-2.47,33.83-11.3,51.63-1.74,3.51-4.96,6.06-8.77,6.96-2.33,.55-5.18,1.15-8.07,1.56-8.16,1.16-15.3,6.38-18.34,14.04Z"/><path class="cls-57" d="M609.35,351.54c-.12,.3-.23,.6-.34,.91l30.18,2.03,20.46,1.38h0c5,.34,9.33-3.45,9.67-8.45l5.98-88.87c.34-5-3.45-9.33-8.45-9.67h0c-5-.34-9.33,3.45-9.67,8.45l-1.35,20.04c-.16,2.34-2.47,33.83-11.3,51.63-1.74,3.51-4.96,6.06-8.77,6.96-2.33,.55-5.18,1.15-8.07,1.56-8.16,1.16-15.3,6.38-18.34,14.04Z"/><path class="cls-71" d="M699.86,313.66c5.09,4.72-7.94,43.15-7.94,43.15l-10.66-.33,.75-11.18c.12-.87,.25-1.7,.39-2.49,1.41-7.71,6.34-14.19,13.03-18.26,.69-.42,1.02-.79,1.02-.79,2.96-2.74,3.4-10.1,3.4-10.1Z"/><path class="cls-5" d="M679.76,298.73l54.83,23.55"/><path class="cls-5" d="M672.55,283.37l51.24,22.01"/><line class="cls-24" x1="340.78" y1="476" x2="423.93" y2="476"/><path class="cls-60" d="M602.41,248.19h-16.87v135.52h182.37s.99-132.56,.99-132.56h-11.66v73.46c0,5.49-4.45,9.95-9.95,9.95h-134.19c-5.91,0-10.7-4.79-10.7-10.7v-75.66Z"/></g><g><g><g><rect class="cls-69" x="693.68" y="478.46" width="80.99" height="55.74" rx="10.86" ry="10.86" transform="translate(-148.75 632.17) rotate(-42.7)"/><path class="cls-50" d="M730.8,511.07h0s6.84,7.41,6.84,7.41c1.37,1.48,3.67,1.58,5.16,.21l12.79-11.8c1.48-1.37,1.58-3.67,.21-5.16l-6.84-7.41-18.15,16.74h0Z"/><path class="cls-40" d="M719.2,514.06c-.68-.71-1.05-1.65-1.03-2.63,.02-.99,.42-1.9,1.13-2.58l18.93-18.18c.69-.67,1.6-1.03,2.55-1.03,.03,0,.05,0,.07,0,.99,.02,1.91,.42,2.59,1.13l2.96,3.09-23.82,22.87-.43,.42-2.97-3.09Zm23.39-22.46c-.46-.48-1.08-.76-1.75-.77-.02,0-.03,0-.05,0-.65,0-1.26,.25-1.73,.7l-18.93,18.18c-.99,.95-1.02,2.54-.07,3.53l2.13,2.23,22.53-21.63-2.14-2.22Z"/><path class="cls-40" d="M734.65,526.4c-1.35-.03-2.61-.58-3.55-1.55l-8.95-9.33,22.21-21.33,.43-.42,8.95,9.33c.94,.98,1.44,2.26,1.41,3.61-.03,1.35-.58,2.62-1.56,3.55l-15.35,14.73c-.95,.92-2.19,1.41-3.5,1.41h-.11Zm-10.81-10.84l8.13,8.46c.71,.75,1.68,1.17,2.71,1.19h.08c1,0,1.95-.38,2.67-1.07l15.35-14.73c.74-.72,1.17-1.68,1.19-2.71s-.36-2.01-1.08-2.75l-8.12-8.47-20.92,20.09Z"/><path class="cls-69" d="M697.32,498.91c-1.93-1.9-2.34-4.88-.85-7.5l11.14-14.95c.93-1.64,2.54-2.74,4.41-3,1.78-.28,3.52,.28,4.84,1.47l15.28,9.4-25.3,23.98-9.52-9.41Zm16.83-20.03l-.43-.34c-.38-.38-.82-.38-1.04-.35-.23,.03-.64,.15-1.07,.86l-11.14,14.95c-.28,.49-.19,1.11,.2,1.49l6.23,6.16,17.43-16.52-10.19-6.27Z"/></g><g><path class="cls-64" d="M544.78,663.34h27.11c.56,0,1.1-.21,1.53-.58l4.3-3.66c.38-.32,.94-.28,1.27,.09,.1,.11,.16,.24,.2,.38l.69,2.89c.12,.52,.58,.88,1.11,.88h10.93c.63,0,1.14-.51,1.14-1.14,0-.07,0-.14-.02-.21l-3.33-17.44h-27.59s-17.33,18.79-17.33,18.79Z"/><path class="cls-64" d="M699.82,645.87l16.49-21.84c.24-.31,.35-.7,.33-1.09l-.37-5.98c-.03-.47,.32-.87,.79-.9,.14-.01,.27,.01,.4,.07l2.63,1.15c.58,.25,1.27,.08,1.65-.43l6.34-8.4c.46-.6,.34-1.47-.26-1.93-.06-.04-.11-.08-.18-.11l-15.93-8.63-17.21,22.89,5.32,25.21Z"/><path class="cls-47" d="M519.52,420.48l2.42,24.4c1.28,11.72,11.82,20.18,23.55,18.9,10.83-1.19,19.03-10.33,19.02-21.22v-12.82c0,5.57,4.52,10.09,10.09,10.09h37.38c4.7,0,8.51-3.81,8.52-8.51v-15.47c0-.7,.57-1.27,1.27-1.27,.41,0,.79,.2,1.03,.52l56.35,77.43c-1.06-12.25,18.76-20.64,20.53-18.1l-58.72-83.95c-5.51-7.88-14.52-12.57-24.14-12.56h-6.99c-2.92,0-5.56-1.73-6.72-4.4l-.98-2.27h-16.05s-1,2.35-1,2.35c-1.15,2.7-3.8,4.45-6.74,4.45h-5.42c-16.26,0-29.44,13.18-29.44,29.44v9.22s-20.08-.44-20.08-.44c-2.12-.05-3.87,1.63-3.92,3.75,0,.15,0,.31,.02,.46Z"/><path class="cls-64" d="M564.52,430.33c.33,0,.6-.27,.6-.6v-19.86c0-.33-.27-.6-.6-.6s-.6,.27-.6,.6v19.86c0,.33,.27,.6,.6,.6Z"/><path class="cls-64" d="M549.74,436.65s.08,0,.13-.01c.32-.07,.53-.39,.46-.71l-3-14.01c-.07-.32-.39-.53-.71-.46-.32,.07-.53,.39-.46,.71l3,14.01c.06,.28,.31,.47,.58,.47Z"/><g><path class="cls-39" d="M571.37,440.3h42.65s0,6.18,0,6.18h-42.65s0-6.18,0-6.18Z"/><path class="cls-64" d="M570.65,446.48v-6.18c0-.4,.32-.72,.72-.72h42.65c.4,0,.72,.32,.72,.72v6.18c0,.4-.32,.72-.72,.72h-42.65c-.4,0-.72-.32-.72-.72Zm42.65-5.46h-41.21v4.74h41.21v-4.74Z"/></g><path class="cls-64" d="M574.96,446.48v-6.18c0-.4,.32-.72,.72-.72h33.94c.4,0,.72,.32,.72,.72v6.18c0,.4-.32,.72-.72,.72h-33.94c-.4,0-.72-.32-.72-.72Zm33.94-5.46h-32.51v4.74h32.51v-4.74Z"/><path class="cls-64" d="M579.44,446.48v-6.18c0-.4,.32-.72,.72-.72h25.07c.4,0,.72,.32,.72,.72v6.18c0,.4-.32,.72-.72,.72h-25.07c-.4,0-.72-.32-.72-.72Zm25.07-5.46h-23.63v4.74h23.63v-4.74Z"/><path class="cls-64" d="M583.82,446.48v-6.18c0-.4,.32-.72,.72-.72h16.24c.4,0,.72,.32,.72,.72v6.18c0,.4-.32,.72-.72,.72h-16.24c-.4,0-.72-.32-.72-.72Zm16.24-5.46h-14.81v4.74h14.81v-4.74Z"/><path class="cls-64" d="M588.9,446.48v-6.18c0-.4,.32-.72,.72-.72h6.09c.4,0,.72,.32,.72,.72v6.18c0,.4-.32,.72-.72,.72h-6.09c-.4,0-.72-.32-.72-.72Zm6.09-5.46h-4.66v4.74h4.66v-4.74Z"/><g><path class="cls-39" d="M611.15,446.48h-35.49c-5.31,0-9.71,4.12-10.05,9.43l-10.95,170.77c-.43,6.76,4.7,12.59,11.46,13.02,.26,.02,.52,.02,.78,.02h20.21c6.42,0,11.75-4.95,12.23-11.34l7.04-93.38s16.89,58.81,75.25,84.41c3.81,1.67,8.27,.49,10.76-2.85l14.99-20.09c2.47-3.3,1.87-7.97-1.35-10.54-13.11-10.49-44.61-37.87-56.33-67.49-10.78-27.22-21.49-52.15-26.76-64.26-2.05-4.68-6.67-7.71-11.78-7.7Z"/><path class="cls-64" d="M566.07,640.42c-7.14-.46-12.58-6.64-12.13-13.79l10.95-170.77c.36-5.66,5.09-10.1,10.77-10.1h35.49s0,0,.01,0c5.39,0,10.27,3.19,12.43,8.14,5.45,12.53,16.19,37.56,26.77,64.28,11.66,29.45,43.13,56.8,56.12,67.2,3.54,2.83,4.19,7.9,1.48,11.53l-14.99,20.09c-2.69,3.62-7.47,4.88-11.62,3.07-49.93-21.9-69.84-68.55-74.52-81.49l-6.77,89.86c-.51,6.73-6.19,12.01-12.95,12.01h-20.21c-.28,0-.56-.01-.83-.03Zm41-105.61c.17,.58,17.48,58.79,74.85,83.95,3.53,1.54,7.6,.47,9.9-2.62l14.99-20.09c2.25-3.01,1.71-7.21-1.22-9.55-13.08-10.47-44.76-38.01-56.56-67.78-10.57-26.71-21.3-51.71-26.75-64.24-1.93-4.42-6.29-7.27-11.11-7.27h-35.5c-4.92,0-9.02,3.84-9.34,8.76l-10.95,170.77c-.41,6.35,4.43,11.85,10.79,12.26,.25,.02,.49,.02,.73,.02h20.21c6.01,0,11.07-4.69,11.52-10.68l7.04-93.38c.03-.35,.3-.62,.64-.66,.02,0,.05,0,.07,0,.32,0,.6,.21,.69,.52Z"/></g><g><path class="cls-39" d="M562.7,639.73h26.4s0,5.11,0,5.11h-26.4s0-5.11,0-5.11Z"/><path class="cls-64" d="M561.99,639.01h27.83s0,6.54,0,6.54h-27.83s0-6.54,0-6.54Zm26.4,1.44h-24.97v3.67h24.97v-3.67Z"/></g><rect class="cls-64" x="566.05" y="639.73" width="1.43" height="5.1"/><rect class="cls-64" x="570.54" y="639.73" width="1.43" height="5.1"/><rect class="cls-64" x="575.04" y="639.73" width="1.43" height="5.1"/><rect class="cls-64" x="579.53" y="639.73" width="1.43" height="5.1"/><rect class="cls-64" x="584.03" y="639.73" width="1.43" height="5.1"/><g><path class="cls-39" d="M708.07,595.77l4.03,3.04-16.63,22.02-4.03-3.04,16.63-22.02Z"/><path class="cls-64" d="M690.44,617.93l17.49-23.17,5.18,3.91-17.49,23.17-5.18-3.91Zm17.77-21.16l-15.76,20.88,2.89,2.18,15.76-20.88-2.89-2.18Z"/></g><polygon class="cls-64" points="709.03 602.89 709.89 601.74 705.86 598.7 705 599.85 709.03 602.89"/><polygon class="cls-64" points="706.13 606.66 706.99 605.51 702.96 602.47 702.09 603.62 706.13 606.66"/><polygon class="cls-64" points="703.22 610.43 704.09 609.28 700.06 606.24 699.19 607.39 703.22 610.43"/><polygon class="cls-64" points="700.32 614.21 701.19 613.06 697.16 610.01 696.29 611.16 700.32 614.21"/><polygon class="cls-64" points="697.71 617.97 698.58 616.83 694.55 613.79 693.68 614.93 697.71 617.97"/><path class="cls-64" d="M606.38,535.72c.11,0,.22-.03,.33-.08,.35-.18,.49-.61,.31-.96-2.1-4.07-4.75-10.82-7.55-17.96-6.88-17.53-11.67-29.02-15.42-29.02-.4,0-.72,.32-.72,.72,0,.4,.32,.72,.72,.72,3.05,0,9.43,16.25,14.08,28.11,2.82,7.18,5.48,13.96,7.61,18.09,.13,.25,.38,.39,.64,.39Z"/><g><path class="cls-44" d="M679.15,492.52s7.95,7.35,20.54,5.33c12.59-2.02,17-15.59,15.56-19.83-1.44-4.23-6.34-1.93-6.34,1.93,0,0-7.44-2.98-9.21-5.52-1.78-2.54-21.6,5.84-20.54,18.09Z"/><path class="cls-64" d="M678.82,492.87l-.14-.13-.02-.18c-.77-8.91,8.91-15.74,15.59-18.17,1.44-.51,4.87-1.58,5.81-.24,1.39,1.98,6.6,4.33,8.39,5.1,.3-2.15,1.96-3.67,3.57-3.93,1.66-.25,3.02,.69,3.65,2.55,.74,2.19,.1,6.73-2.59,11.19-3.06,5.09-7.8,8.37-13.35,9.26-1.53,.25-2.99,.35-4.38,.35-10.15,0-16.49-5.74-16.56-5.81Zm33.38-16.61c-1.35,.22-2.82,1.7-2.82,3.68v.71s-.66-.26-.66-.26c-.31-.12-7.59-3.06-9.43-5.69-.24-.34-1.73-.5-4.7,.59-6.12,2.22-15.54,8.78-14.98,16.99,1.1,.93,8.66,6.91,20,5.09,7.11-1.14,11-6.01,12.68-8.81,2.51-4.17,3.16-8.47,2.5-10.4-.43-1.26-1.22-1.94-2.22-1.94-.12,0-.25,0-.38,.03Zm-33.06,16.26h.01s-.01,0-.01,0Z"/></g><path class="cls-64" d="M708.68,487.18c1,0,1.98-.12,2.86-.34,2.46-.62,4.09-1.95,4.49-3.65,.06-.26-.1-.51-.35-.57-.27-.07-.52,.1-.57,.36-.32,1.34-1.7,2.41-3.8,2.94-2.93,.73-6.24,.16-7.54-1.31-.18-.2-.48-.22-.68-.04-.2,.18-.21,.48-.04,.68,1.21,1.36,3.44,1.94,5.63,1.94Z"/><path class="cls-64" d="M706,492.83c4.4,0,5.72-2.67,5.79-2.83,.11-.24,0-.52-.23-.64-.24-.11-.52-.01-.64,.23h0c-.08,.17-2.2,4.31-10.83,.98-.24-.11-.52,.02-.62,.27-.1,.25,.03,.52,.27,.62,2.57,1,4.62,1.36,6.25,1.36Z"/><path class="cls-64" d="M700.48,497c1.46,0,2.59-.21,3.16-.32,.26-.05,.43-.3,.38-.56-.05-.26-.28-.43-.56-.38-1.13,.21-4.55,.86-8.27-.8-.23-.12-.52,0-.63,.24-.11,.24,0,.52,.24,.63,2.09,.94,4.08,1.2,5.68,1.2Z"/><path class="cls-64" d="M622.55,378.9l-54.73-.42s-2.41-5.92,6.88-13.02c3.87-3.93,10.74-5.62,10.84-12.12,.1-6.5,6.92-11.56,15.12-8.91,7.7,2.49,4.77,10.63,8.9,13.16,4.13,2.53,16.34,10.34,12.99,21.32Z"/><path class="cls-44" d="M585.21,379.33h20.79s-6.36-16.43-6.36-16.43h-11.8s-2.63,16.43-2.63,16.43Z"/><path class="cls-64" d="M586.1,371.24h1.81c3.48,0,6.75-1.65,8.83-4.44l2.9-3.9h-11.8s-1.74,8.34-1.74,8.34Z"/><path class="cls-44" d="M584.37,357.88c.62,4.21,2.15,10,5.8,10,3.86,0,7.38-2.93,8.81-4.3h3.36c1.95-.05,3.48-1.67,3.43-3.62-.05-1.87-1.56-3.38-3.43-3.43h-2.68s-10.1-.09-13.14-5.81c-1.74,1.95-2.53,4.57-2.14,7.16Z"/><path class="cls-64" d="M600.8,361c.26,0,.48-.21,.48-.48,0-.82,.67-1.49,1.49-1.49v-.95c-1.35,0-2.44,1.09-2.44,2.44,0,.27,.21,.48,.48,.48Z"/><path class="cls-64" d="M589.06,362.24c.15,0,.3-.07,.39-.2,.68-.96,.25-4.71-.67-5.89-1.43-1.83-3.78-1.01-3.88-.97-.25,.09-.38,.36-.28,.61,.09,.25,.36,.37,.61,.28,.08-.02,1.8-.63,2.8,.66,.73,.94,.99,4.25,.64,4.75-.15,.21-.1,.51,.12,.67,.08,.06,.18,.08,.28,.08Z"/><path class="cls-64" d="M592.92,359.13c-.35,0-.63-.39-.63-.86,0-.48,.28-.86,.63-.86s.63,.39,.63,.86-.28,.86-.63,.86Z"/><path class="cls-64" d="M586.74,359.13c-.35,0-.63-.39-.63-.86,0-.48,.28-.86,.63-.86s.63,.39,.63,.86c0,.48-.28,.86-.63,.86Z"/><path class="cls-64" d="M589.65,364.36c.78,0,2-.21,2.69-1.37,.14-.23,.06-.52-.17-.66-.22-.14-.51-.07-.66,.16-.71,1.2-2.35,.89-2.42,.87-.25-.07-.51,.11-.56,.37-.05,.26,.11,.51,.37,.57,.03,0,.33,.07,.74,.07Z"/></g></g><g><path class="cls-44" d="M529.99,411.08l13.83,4.02s-.87,1.87-1.5,2.54c-1.16,1.37-2.74,2.38-4.59,2.82l-5.91,1.4c-2.34,.56-4.74,.1-6.67-1.13,0,0-.96-.52-1.69-1.43l6.53-8.21Z"/><g><path class="cls-44" d="M525.71,417.54c-.32,.17-.62,.36-.91,.57-.49,.35-.93,.75-1.34,1.19-.45-.49-.85-1.03-1.18-1.63-2.83-5.08-5.7-12.12-6.19-15.6-.92-6.41,6.63-17.55,9.76-18.33,3.13-.78,8,17.66,10.59,18.45,2.2,.67,2.73-5.15,4.21-4.73,2.95,.85,3.73,8.92,3.74,14.58,0,1.08-.2,2.11-.56,3.07-.05,0-.11-.02-.16-.03-.79-.12-1.59-.13-2.39-.03l-.77,.09-.62,.08-.75,.09-.16,.02-3.74,.46-.75,.09-1.81,.22c-.49-5.91,3.64-10.99,3.68-11.04,.1-.13,.09-.31-.04-.42-.13-.11-.31-.09-.42,.04-.18,.22-4.34,5.33-3.81,11.49l-1.06,.13-.43,.05-.75,.09-.35,.04-.64,.08c-1.1,.13-2.16,.47-3.13,.99Zm-1.43-15.59c.15-.06,.23-.22,.18-.38-.76-2.1-3.13-10.86-3.35-12.34-.02-.16-.17-.27-.33-.25-.16,.02-.27,.17-.25,.33,.21,1.5,2.61,10.35,3.38,12.46,.03,.08,.09,.14,.16,.17,.07,.03,.15,.03,.22,0Zm3.71-3.32c.15-.06,.23-.22,.18-.38-.15-.4-.38-1.04-.66-1.81-1.22-3.33-3.5-9.54-3.66-10.68-.02-.16-.17-.27-.33-.25-.16,.02-.27,.17-.25,.33,.16,1.11,1.99,6.16,3.69,10.8,.28,.77,.51,1.4,.66,1.81,.03,.08,.09,.14,.16,.17,.07,.03,.14,.03,.22,0Z"/><path class="cls-65" d="M521.1,389.22c.21,1.48,2.59,10.25,3.35,12.34,.06,.15-.02,.32-.18,.38-.07,.03-.15,.02-.22,0-.07-.03-.13-.09-.16-.17-.76-2.11-3.16-10.96-3.38-12.46-.02-.16,.09-.31,.25-.33,.16-.02,.31,.09,.33,.25Z"/><path class="cls-65" d="M527.5,396.44c.28,.77,.52,1.41,.66,1.81,.05,.15-.02,.32-.18,.38-.07,.03-.15,.02-.22,0-.07-.03-.13-.09-.16-.17-.14-.4-.38-1.03-.66-1.81-1.7-4.64-3.53-9.69-3.69-10.8-.02-.16,.09-.31,.25-.33,.16-.02,.31,.09,.33,.25,.16,1.14,2.44,7.35,3.66,10.68Z"/><path class="cls-65" d="M536.34,405.04c-.04,.05-4.17,5.13-3.68,11.04l-.59,.07c-.52-6.16,3.63-11.27,3.81-11.49,.1-.13,.29-.15,.42-.04,.13,.1,.14,.29,.04,.42Z"/></g><path class="cls-65" d="M532.12,416.63c-.02-.16-.03-.32-.05-.48l.59-.07c.01,.16,.03,.32,.05,.48,.02,.16-.09,.31-.26,.33-.05,0-.11,0-.16-.02-.09-.04-.16-.13-.17-.23Z"/></g></g></svg>