<svg width="154" height="41" viewBox="0 0 154 41" fill="none" xmlns="http://www.w3.org/2000/svg">
<g clip-path="url(#clip0_559_4487)">
<path d="M65.5275 8.91007L69.2696 17.5574H61.6029L65.5269 8.91007H65.5275ZM53.1026 27.3404H57.2046L60.0177 21.1645H70.8237L73.4727 27.3404H77.6402L65.5924 0.313965L53.102 27.3404H53.1026Z" fill="#1D1A3F"/>
<path d="M80.2935 27.339V1.91016H85.5897C88.1304 1.91016 90.1349 2.16296 91.6075 2.66673C93.1872 3.16248 94.6182 4.00107 95.9054 5.18804C98.511 7.5817 99.8116 10.727 99.8116 14.6246C99.8116 18.5221 98.4571 21.6946 95.7432 24.1129C94.3789 25.3196 92.9516 26.1582 91.4594 26.6305C90.0639 27.1028 88.0869 27.3396 85.5248 27.3396H80.2941L80.2935 27.339ZM84.103 23.7325H85.8192C87.5293 23.7325 88.9524 23.5512 90.0853 23.1886C91.2201 22.8045 92.2441 22.1947 93.1597 21.3604C95.0338 19.6376 95.9709 17.3913 95.9709 14.6246C95.9709 11.8579 95.0455 9.57396 93.1934 7.83944C91.5249 6.29176 89.0674 5.5173 85.8192 5.5173H84.103V23.7325Z" fill="#1D1A3F"/>
<path d="M112.391 8.91007L116.132 17.5574H108.465L112.391 8.91007ZM99.964 27.3404H104.068L106.879 21.1645H117.685L120.334 27.3404H124.503L112.454 0.313965L99.964 27.3404Z" fill="#1D1A3F"/>
<path d="M149.228 0L140.252 19.7628L131.586 0L126.273 27.3409H130.213L132.928 11.9739L140.185 28.5082L147.656 11.9893L150.092 27.3409H154L149.228 0Z" fill="#1D1A3F"/>
<path d="M44.0735 17.0127V27.339H40.264V1.91016H44.5796C46.6949 1.91016 48.2924 2.05753 49.3696 2.35411C50.4591 2.6507 51.4194 3.21058 52.2482 4.03498C53.6975 5.46119 54.421 7.26353 54.421 9.43645C54.421 11.7648 53.648 13.609 52.1001 14.9711C50.5521 16.3313 48.4662 17.0127 45.8393 17.0127H44.0741H44.0735ZM44.0735 13.4555H45.4947C48.9938 13.4555 50.7437 12.099 50.7437 9.38836C50.7437 6.67776 48.9387 5.45071 45.3331 5.45071H44.0741V13.4555H44.0735Z" fill="#1D1A3F"/>
<path d="M10.2606 22.7473C7.42556 22.7473 5.12665 25.0633 5.12665 27.9194L5.12848 27.9391H15.3928L15.3946 27.9194C15.3946 25.0633 13.0957 22.7473 10.2606 22.7473Z" fill="#5CB676"/>
<path d="M27.1493 7.93444C27.2203 7.93444 27.2876 7.94246 27.3586 7.9443V4.15218C27.3586 2.06866 25.6803 0.37793 23.6122 0.37793H11.587C12.6881 1.82757 13.3442 3.64039 13.3442 5.60983C13.3442 10.3676 9.51513 14.2257 4.79001 14.2257C3.01686 14.2257 1.36796 13.6818 0 12.7477V24.1654C0 26.2507 1.67828 27.9396 3.74644 27.9396H5.12848L5.12664 27.9199C5.12664 25.0638 7.42555 22.7478 10.2606 22.7478C13.0957 22.7478 15.3946 25.0638 15.3946 27.9199V27.9396H23.6128C25.6809 27.9396 27.3592 26.2507 27.3592 24.1654V19.8855C27.2882 19.8874 27.2209 19.8954 27.1499 19.8954C23.8699 19.8954 21.2129 17.2187 21.2129 13.9143C21.2129 10.6099 23.8699 7.93321 27.1499 7.93321" fill="#1D1A3F"/>
<path d="M13.3442 5.60872C13.3442 3.64113 12.6881 1.82892 11.587 0.378662H3.74828C1.67828 0.378662 0 2.06755 0 4.15106V12.749C1.36796 13.6813 3.01686 14.227 4.79001 14.227C9.51513 14.227 13.3442 10.3671 13.3442 5.60933" fill="#48C0EA"/>
<path d="M16.4284 14.3508C14.9099 14.3508 13.6802 15.5896 13.6802 17.1194C13.6802 18.6492 14.9099 19.8898 16.4284 19.8898C17.9469 19.8898 19.1766 18.6492 19.1766 17.1194C19.1766 15.5896 17.9469 14.3508 16.4284 14.3508Z" fill="#FCBC0D"/>
<path d="M27.1493 7.93457C23.8692 7.93457 21.2123 10.6131 21.2123 13.9157C21.2123 17.2182 23.8692 19.8967 27.1493 19.8967C27.2203 19.8967 27.2876 19.8887 27.3586 19.8869V7.94444C27.2876 7.94259 27.2203 7.93457 27.1493 7.93457Z" fill="#E21044"/>
<path d="M40.8326 40.6597L42.3787 32.7061L44.8997 38.4559L47.5108 32.7061L48.8996 40.6597H47.763L47.0542 36.1942L44.8808 41L42.7691 36.1893L41.9796 40.6597H40.8332H40.8326Z" fill="#1D1A3F"/>
<path d="M59.8488 36.9273C59.8488 35.8858 60.2277 34.9917 60.9854 34.2438C61.7401 33.4965 62.6472 33.1228 63.706 33.1228C64.7649 33.1228 65.6499 33.4996 66.3979 34.2537C67.1495 35.0078 67.5253 35.9129 67.5253 36.9704C67.5253 38.0279 67.1483 38.9368 66.3936 39.6773C65.6359 40.4216 64.7208 40.794 63.6491 40.794C62.701 40.794 61.8503 40.4635 61.0956 39.8019C60.265 39.0706 59.8494 38.1124 59.8494 36.9273H59.8488ZM60.9664 36.9414C60.9664 37.7591 61.2394 38.4318 61.7848 38.9584C62.3271 39.4856 62.9538 39.7489 63.6638 39.7489C64.4344 39.7489 65.0844 39.4806 65.6138 38.9442C66.1433 38.401 66.4077 37.74 66.4077 36.9606C66.4077 36.1812 66.1463 35.5103 65.623 34.9769C65.1028 34.4405 64.4595 34.1723 63.692 34.1723C62.9244 34.1723 62.2824 34.4405 61.756 34.9769C61.2296 35.5072 60.9664 36.1621 60.9664 36.9414Z" fill="#1D1A3F"/>
<path d="M78.6789 40.6598V33.2617H79.7824C80.2739 33.2617 80.6657 33.2999 80.957 33.3764C81.252 33.4529 81.5005 33.5824 81.7037 33.7643C81.91 33.9529 82.0734 34.1872 82.1934 34.4684C82.317 34.7527 82.3788 35.04 82.3788 35.331C82.3788 35.8613 82.1775 36.3102 81.7747 36.6777C82.1646 36.8121 82.4725 37.0464 82.6977 37.3819C82.926 37.7142 83.0398 38.1008 83.0398 38.5417C83.0398 39.1201 82.8366 39.6084 82.4308 40.008C82.1866 40.254 81.9124 40.4248 81.6082 40.5204C81.2753 40.6129 80.8585 40.6591 80.3572 40.6591H78.6783L78.6789 40.6598ZM79.7873 36.4385H80.1344C80.5463 36.4385 80.8487 36.3466 81.0409 36.1629C81.2324 35.9791 81.3285 35.7084 81.3285 35.3508C81.3285 34.9931 81.23 34.7385 81.0335 34.5578C80.837 34.3772 80.5518 34.2871 80.1772 34.2871H79.7873V36.4385ZM79.7873 39.6103H80.4722C80.9735 39.6103 81.3408 39.511 81.5758 39.3131C81.8231 39.0991 81.9467 38.8278 81.9467 38.4986C81.9467 38.1693 81.828 37.9109 81.5899 37.6939C81.3585 37.4799 80.9448 37.3726 80.3486 37.3726H79.7873V39.6103Z" fill="#1D1A3F"/>
<path d="M95.3068 33.2617V40.6598H94.1984V33.2617H95.3068Z" fill="#1D1A3F"/>
<path d="M107.94 33.2617V39.6103H110.099V40.6598H106.831V33.2617H107.94Z" fill="#1D1A3F"/>
<path d="M122.018 33.2617V40.6598H120.91V33.2617H122.018Z" fill="#1D1A3F"/>
<path d="M135.57 34.3112V40.6598H134.461V34.3112H132.772V33.2617H137.253V34.3112H135.569H135.57Z" fill="#1D1A3F"/>
<path d="M149.962 37.4639L147.565 33.2617H148.84L150.519 36.2183L152.203 33.2617H153.478L151.071 37.4639V40.6598H149.963V37.4639H149.962Z" fill="#1D1A3F"/>
</g>
<defs>
<clipPath id="clip0_559_4487">
<rect width="154" height="41" fill="white"/>
</clipPath>
</defs>
</svg>