<?xml version="1.0" encoding="UTF-8"?>
<svg id="Calque_1" xmlns="http://www.w3.org/2000/svg" viewBox="0 0 566 356"><defs><style>.cls-1{stroke-width:3.06px;}.cls-1,.cls-2,.cls-3,.cls-4,.cls-5,.cls-6,.cls-7,.cls-8,.cls-9,.cls-10,.cls-11,.cls-12,.cls-13,.cls-14{fill:none;}.cls-1,.cls-2,.cls-4,.cls-5,.cls-6,.cls-7,.cls-8,.cls-15,.cls-9,.cls-10,.cls-11,.cls-12,.cls-13,.cls-16,.cls-14{stroke-miterlimit:10;}.cls-1,.cls-3,.cls-4,.cls-11{stroke:#fff;}.cls-2,.cls-15,.cls-9,.cls-12,.cls-16{stroke:#ebeaea;}.cls-2,.cls-16{stroke-width:1.08px;}.cls-17{fill:#f9e1d4;}.cls-18{fill:#ebeaea;}.cls-19{fill:#f1b7b8;}.cls-20{fill:#f5bbbb;}.cls-21{fill:#fbc00c;}.cls-22,.cls-15,.cls-16{fill:#fff;}.cls-23{fill:#ffe2d5;}.cls-24{fill:#e5eff4;}.cls-25{fill:#96cdde;}.cls-26{fill:#7fb0c8;}.cls-27{fill:#8ebed1;}.cls-28{fill:#71d690;}.cls-29{fill:#abd9e4;}.cls-30{fill:#c4dae3;}.cls-31{fill:#cfcfcf;}.cls-32{fill:#de0c44;}.cls-33{fill:#e20c44;}.cls-34{fill:#1e1d3f;}.cls-35{fill:#1d1a3f;}.cls-36{fill:#1b0c12;}.cls-37{fill:#3f3f44;}.cls-38{fill:#9c684b;}.cls-39{fill:#5bae76;}.cls-3{stroke-linejoin:round;}.cls-3,.cls-4,.cls-5,.cls-11,.cls-12,.cls-13{stroke-width:.9px;}.cls-3,.cls-7,.cls-8,.cls-11,.cls-12,.cls-13,.cls-14{stroke-linecap:round;}.cls-5{stroke:#c4dae3;}.cls-6,.cls-8,.cls-13,.cls-14{stroke:#1e1d3f;}.cls-6,.cls-14{stroke-width:.36px;}.cls-7,.cls-8,.cls-15,.cls-9,.cls-10{stroke-width:1.8px;}.cls-7,.cls-10{stroke:#1d1a3f;}</style></defs><path class="cls-28" d="M553.84,157.87H133.81c-3.63,0-8.2,.72-11.65-.21,3.6-11.11,15.24-17.18,24.62-20.31,13.37-4.49,27.46-5.14,40.87-9.35,18.76-5.86,35.87-16,54.31-22.68,32.39-11.75,66.75-14.52,100.54-9.56,19.05,2.8,36.45,8.38,54.03,17,16.5,8.09,33.14,16.71,51.3,18.62,16.61,1.76,33.14,3.42,43.03,4.21,38.18,3.05,62.94,22.32,62.94,22.32"/><path class="cls-35" d="M480.94,139.76v20.2h-47.77v-20.2h47.77Z"/><path class="cls-34" d="M503.19,122.79h-47.7l-22.36,16.93h47.7l22.32-16.93h.04Z"/><path class="cls-30" d="M525.52,139.76l-22.36-16.43-22.32,16.43h.07v20.2h44.61v-20.2Z"/><path class="cls-35" d="M503.05,142.09v3.88h-3.92v-3.88h3.92Z"/><path class="cls-35" d="M508.84,142.09v3.88h-3.92v-3.88h3.92Z"/><path class="cls-35" d="M503.05,147.67v3.88h-3.92v-3.88h3.92Z"/><path class="cls-35" d="M508.84,147.67v3.88h-3.92v-3.88h3.92Z"/><path class="cls-30" d="M423.57,159.96l29.91-20.2,27.46,20.2h-57.37Z"/><path class="cls-34" d="M423.21,160.35l30.59-20.63h-48.2l-29.87,20.63h47.49Z"/><path class="cls-34" d="M557.33,95.58l-24.8,.72-7.69,14.34v49.68h24.16v-49.68l8.38-15.06h-.04Z"/><path class="cls-30" d="M565.38,110.64l-8.05-15.06-8.38,15.06v49.68h16.43v-49.68Z"/><path class="cls-5" d="M544.57,90.19c1.15,0,2.09,.93,2.09,2.08v5.93c0,1.15-.93,2.09-2.09,2.09s-2.08-.93-2.08-2.09v-5.93c0-1.15,.93-2.08,2.08-2.08Z"/><path class="cls-5" d="M544.57,93.93c-1.15,0-2.08-.9-2.08-2.01s.93-2.01,2.08-2.01,2.09,.9,2.09,2.01-.93,2.01-2.09,2.01Z"/><path class="cls-35" d="M557.18,116.29c-1.15,0-2.08-.9-2.08-2.01s.93-2.01,2.08-2.01,2.09,.9,2.09,2.01-.93,2.01-2.09,2.01Z"/><path class="cls-35" d="M557.18,128.22c-1.15,0-2.08-.9-2.08-2.01s.93-2.01,2.08-2.01,2.09,.9,2.09,2.01-.93,2.01-2.09,2.01Z"/><path class="cls-35" d="M557.22,138.64c-1.15,0-2.08-.9-2.08-2.01s.93-2.01,2.08-2.01,2.09,.9,2.09,2.01-.93,2.01-2.09,2.01Z"/><path class="cls-1" d="M143.01,351.41v-23.08"/><path class="cls-18" d="M330.26,324.13H199.49v-41.37c1.04-8.52,1.04-12.51,1.04-12.51l35.8-18.84,32.85-75.77c6.25-13.16,17.65-19.81,17.65-19.81l43.39-1.29v169.59h.04Z"/><path class="cls-37" d="M130.4,346.16c7.33,7.4,19.19,7.4,26.53,0,7.33-7.4,7.33-19.41,0-26.82-7.33-7.4-19.2-7.4-26.53,0-7.33,7.4-7.33,19.41,0,26.82Z"/><path class="cls-16" d="M106.06,277.86c0-4.21,1.98-8.2,5.39-10.71l19.48-14.52,63.37-80.77c5.28-7.62,13.19-14.38,21.93-14.38l79.66-.65c-9.56,0-17.65,6.29-21.39,14.99l-37.53,79.76s-36.99,18.8-37.42,23.69c-.04,.43-.04,2.12-.04,2.55v45.62H105.2l.9-45.62-.04,.04Z"/><path class="cls-24" d="M131.26,300.98c-.83,0-1.51,.68-1.51,1.55v9.53c0,.83,.68,1.55,1.51,1.55h39.97c.83,0,1.51-.68,1.51-1.55v-9.53c0-.83-.68-1.55-1.51-1.55h-39.97Z"/><path class="cls-2" d="M129.21,299.47c-.83,0-1.51,.68-1.51,1.55v9.52c0,.83,.68,1.55,1.51,1.55h39.97c.83,0,1.51-.68,1.51-1.55v-9.52c0-.83-.68-1.55-1.51-1.55h-39.97Z"/><path class="cls-34" d="M141.68,302.63c.43,0,.79-.36,.79-.79s-.36-.79-.79-.79-.79,.36-.79,.79,.36,.79,.79,.79Z"/><path class="cls-34" d="M136.69,302.63c.43,0,.79-.36,.79-.79s-.36-.79-.79-.79-.79,.36-.79,.79,.36,.79,.79,.79Z"/><path class="cls-34" d="M131.69,302.63c.43,0,.79-.36,.79-.79s-.36-.79-.79-.79-.79,.36-.79,.79,.36,.79,.79,.79Z"/><path class="cls-34" d="M166.7,302.63c.43,0,.79-.36,.79-.79s-.36-.79-.79-.79-.79,.36-.79,.79,.36,.79,.79,.79Z"/><path class="cls-34" d="M161.71,302.63c.43,0,.79-.36,.79-.79s-.36-.79-.79-.79-.79,.36-.79,.79,.36,.79,.79,.79Z"/><path class="cls-34" d="M156.71,302.63c.43,0,.79-.36,.79-.79s-.36-.79-.79-.79-.79,.36-.79,.79,.36,.79,.79,.79Z"/><path class="cls-34" d="M151.71,302.63c.43,0,.79-.36,.79-.79s-.36-.79-.79-.79-.79,.36-.79,.79,.36,.79,.79,.79Z"/><path class="cls-34" d="M146.72,302.63c.43,0,.79-.36,.79-.79s-.36-.79-.79-.79-.79,.36-.79,.79,.36,.79,.79,.79Z"/><path class="cls-34" d="M144.2,305.25c.43,0,.79-.36,.79-.79s-.36-.79-.79-.79-.79,.36-.79,.79,.36,.79,.79,.79Z"/><path class="cls-34" d="M139.2,305.25c.43,0,.79-.36,.79-.79s-.36-.79-.79-.79-.79,.36-.79,.79,.36,.79,.79,.79Z"/><path class="cls-34" d="M134.21,305.25c.43,0,.79-.36,.79-.79s-.36-.79-.79-.79-.79,.36-.79,.79,.36,.79,.79,.79Z"/><path class="cls-34" d="M164.19,305.25c.43,0,.79-.36,.79-.79s-.36-.79-.79-.79-.79,.36-.79,.79,.36,.79,.79,.79Z"/><path class="cls-34" d="M159.19,305.25c.43,0,.79-.36,.79-.79s-.36-.79-.79-.79-.79,.36-.79,.79,.36,.79,.79,.79Z"/><path class="cls-34" d="M154.19,305.25c.43,0,.79-.36,.79-.79s-.36-.79-.79-.79-.79,.36-.79,.79,.36,.79,.79,.79Z"/><path class="cls-34" d="M149.2,305.25c.43,0,.79-.36,.79-.79s-.36-.79-.79-.79-.79,.36-.79,.79,.36,.79,.79,.79Z"/><path class="cls-34" d="M141.68,307.88c.43,0,.79-.36,.79-.79s-.36-.79-.79-.79-.79,.36-.79,.79,.36,.79,.79,.79Z"/><path class="cls-34" d="M136.69,307.88c.43,0,.79-.36,.79-.79s-.36-.79-.79-.79-.79,.36-.79,.79,.36,.79,.79,.79Z"/><path class="cls-34" d="M131.69,307.88c.43,0,.79-.36,.79-.79s-.36-.79-.79-.79-.79,.36-.79,.79,.36,.79,.79,.79Z"/><path class="cls-34" d="M166.7,307.88c.43,0,.79-.36,.79-.79s-.36-.79-.79-.79-.79,.36-.79,.79,.36,.79,.79,.79Z"/><path class="cls-34" d="M161.71,307.88c.43,0,.79-.36,.79-.79s-.36-.79-.79-.79-.79,.36-.79,.79,.36,.79,.79,.79Z"/><path class="cls-34" d="M156.71,307.88c.43,0,.79-.36,.79-.79s-.36-.79-.79-.79-.79,.36-.79,.79,.36,.79,.79,.79Z"/><path class="cls-34" d="M151.71,307.88c.43,0,.79-.36,.79-.79s-.36-.79-.79-.79-.79,.36-.79,.79,.36,.79,.79,.79Z"/><path class="cls-34" d="M146.72,307.88c.43,0,.79-.36,.79-.79s-.36-.79-.79-.79-.79,.36-.79,.79,.36,.79,.79,.79Z"/><path class="cls-34" d="M144.2,310.5c.43,0,.79-.36,.79-.79s-.36-.79-.79-.79-.79,.36-.79,.79,.36,.79,.79,.79Z"/><path class="cls-34" d="M139.2,310.5c.43,0,.79-.36,.79-.79s-.36-.79-.79-.79-.79,.36-.79,.79,.36,.79,.79,.79Z"/><path class="cls-34" d="M134.21,310.5c.43,0,.79-.36,.79-.79s-.36-.79-.79-.79-.79,.36-.79,.79,.36,.79,.79,.79Z"/><path class="cls-34" d="M164.19,310.5c.43,0,.79-.36,.79-.79s-.36-.79-.79-.79-.79,.36-.79,.79,.36,.79,.79,.79Z"/><path class="cls-34" d="M159.19,310.5c.43,0,.79-.36,.79-.79s-.36-.79-.79-.79-.79,.36-.79,.79,.36,.79,.79,.79Z"/><path class="cls-34" d="M154.19,310.5c.43,0,.79-.36,.79-.79s-.36-.79-.79-.79-.79,.36-.79,.79,.36,.79,.79,.79Z"/><path class="cls-34" d="M149.2,310.5c.43,0,.79-.36,.79-.79s-.36-.79-.79-.79-.79,.36-.79,.79,.36,.79,.79,.79Z"/><path class="cls-22" d="M288.09,251.48l-136.6-.07,38.75-72.18c1.47-3.49,4.85-5.75,8.59-5.75h81.38c4.35,0,7.87,3.56,7.87,7.98v70.02Z"/><path class="cls-24" d="M284.17,251.48H138.05l52.91-69.59c2.12-3.2,5.25-5.75,8.2-5.75h77.46c4.17,0,7.51,3.56,7.51,7.98v67.36h.04Z"/><path class="cls-34" d="M229.03,202.23h7.12c4.35,0,7.87,3.56,7.87,7.94v41.3h-7.12v-41.3c0-4.39-3.52-7.94-7.87-7.94Z"/><path class="cls-31" d="M192.15,210.18c0-4.39,3.52-7.94,7.87-7.94h29.01c4.35,0,7.87,3.56,7.87,7.94v41.3h-44.75v-41.3Z"/><path class="cls-27" d="M238.27,251.48h12.83c2.41-.04,4.35-2.01,4.35-4.46v-15.21c0-1.44,1.15-2.62,2.59-2.62h4.21c1.44,0,2.59,1.19,2.59,2.62v15.21c0,2.48-1.98,4.49-4.42,4.49h-22.14v-.04Z"/><path class="cls-25" d="M116.05,297.81c4.1,0,7.44-3.38,7.44-7.55s-3.34-7.55-7.44-7.55-7.44,3.38-7.44,7.55,3.34,7.55,7.44,7.55Z"/><path class="cls-25" d="M187.48,297.81c4.1,0,7.44-3.38,7.44-7.55s-3.34-7.55-7.44-7.55-7.44,3.38-7.44,7.55,3.34,7.55,7.44,7.55Z"/><path class="cls-2" d="M187.84,303.82c1.04,0,1.87-.83,1.87-1.87s-.83-1.87-1.87-1.87-1.87,.83-1.87,1.87,.83,1.87,1.87,1.87Z"/><path class="cls-39" d="M159.3,251.48l2.48-12.04c1.94-9.38,10.14-16.1,19.59-16.1h29.15c9.49,0,17.65,6.72,19.59,16.1l2.48,12.04h-73.29Z"/><path class="cls-17" d="M203.08,223.22c-11.75,3.05-14.63,0-14.63,0v-7.66h9.31l5.36,7.66h-.04Z"/><path class="cls-34" d="M192.29,224.45l4.17-4.6c.83-.9,1.29-2.08,1.29-3.31v-.97h-9.31v7.66s1.04,.9,3.88,1.22h-.04Z"/><path class="cls-17" d="M187.59,208.56l6.76,1.33,2.7,1.04v.97c.22-.5,.72-.86,1.26-.86h.4c1.22,0,2.23,1.04,2.26,2.3,0,1.29-.97,2.37-2.26,2.41h-1.65l-1.01,1.76c-.54,.93-1.55,1.55-2.62,1.55h-3.95c-1.62-.18-2.8-1.65-2.62-3.31l.76-7.15v-.04Z"/><path class="cls-21" d="M197.33,210.9v2.7c-.65,0-1.33-.54-1.33-1.15v-.72c0-.57-.4-1.04-.93-1.19l.07-1.33,2.19,1.69Z"/><path class="cls-6" d="M197.83,213.38c0-.68,.57-1.26,1.26-1.26"/><path class="cls-6" d="M192.33,215.6c-.22,.65-.9,1.04-1.55,.83"/><path class="cls-6" d="M190.86,215.1c-.79,0-.54-2.45-.32-3.78v-.11c0-.43-.36-.79-.75-.79h-2.16"/><path class="cls-34" d="M192.58,213.05c.25,0,.47-.36,.47-.75s-.22-.76-.47-.76-.47,.36-.47,.76c0,.43,.22,.75,.47,.75Z"/><path class="cls-34" d="M188.81,212.98c.21,0,.39-.29,.39-.68,0-.36-.18-.68-.39-.68s-.4,.29-.4,.68c0,.36,.18,.68,.4,.68Z"/><path class="cls-4" d="M196.39,173.51h84.54c4.13,0,7.48,3.38,7.48,7.59v133.79h-16.03c-1.51,0-2.88-.79-3.67-2.08-6.22-10.32-17.69-17.22-30.84-17.22-.58,0-1.11,0-1.69,.04l.07-44.18"/><path class="cls-37" d="M263.43,333.08h-48.24v-.4c.11-13.48,11-24.3,24.3-24.19,13.3,.11,24.01,11.11,23.91,24.59h.04Z"/><path class="cls-19" d="M239.03,351.7c10.35,0,18.76-8.48,18.76-18.98s-8.41-18.98-18.76-18.98-18.76,8.48-18.76,18.98,8.41,18.98,18.76,18.98Z"/><path class="cls-11" d="M239.03,348.46c8.59,0,15.53-7.05,15.53-15.71s-6.97-15.71-15.53-15.71-15.53,7.04-15.53,15.71,6.97,15.71,15.53,15.71Z"/><path class="cls-12" d="M239.06,335.95c1.73,0,3.13-1.4,3.13-3.16s-1.4-3.13-3.13-3.13-3.13,1.4-3.13,3.13,1.4,3.16,3.13,3.16Z"/><path class="cls-11" d="M221.34,348.14c-3.31-3.09-5.32-7.26-5.32-11.9"/><path class="cls-9" d="M236.33,251.41l-32.82,17.87c-1.9,.97-4.06,3.6-4.06,6.61v48.28"/><path class="cls-4" d="M263.97,260.75c0-1.73,1.37-3.09,3.06-3.09h10.1c1.69,0,3.06,1.4,3.06,3.09"/><path class="cls-2" d="M203.55,269.27l-7.98,2.7c-3.27,1.08-7.3,1.69-11.4,1.69l-68.91-.4c-6.58,.22-4.03-6.04-4.03-6.04"/><path class="cls-2" d="M126.41,282.79h48.89"/><path class="cls-2" d="M236.44,251.48h12.83c2.41-.04,4.35-2.01,4.35-4.46v-15.21c0-1.44,1.15-2.62,2.59-2.62h4.21c1.44,0,2.59,1.19,2.59,2.62v15.21c0,2.48-1.98,4.49-4.42,4.49h-22.14v-.04Z"/><path class="cls-9" d="M137.15,251.48h99.25"/><path class="cls-3" d="M190.64,187.31l7.23,7.01"/><path class="cls-3" d="M200.53,196.91l2.59,2.48"/><path class="cls-3" d="M208.87,205.04l26.1,25.34"/><path class="cls-3" d="M200.53,187.31l4.24,4.13"/><path class="cls-3" d="M208.11,194.72l24.41,23.69"/><path class="cls-22" d="M235.9,251.19l31.63-75.09h1.04l-31.81,75.49-.9-.4h.04Z"/><path class="cls-2" d="M116.05,304.5c1.04,0,1.87-.83,1.87-1.87s-.83-1.87-1.87-1.87-1.87,.83-1.87,1.87,.83,1.87,1.87,1.87Z"/><path class="cls-18" d="M330.26,324.13V154.57h92.6c9.6,0,17.36,7.8,17.36,17.36v134.04c0,10.03-8.12,18.15-18.15,18.15h-91.81Z"/><path class="cls-37" d="M414.01,333.22h-48.24v-.39c.11-13.48,11-24.3,24.3-24.19,13.3,.11,24.01,11.11,23.9,24.59h.04Z"/><path class="cls-19" d="M389.6,351.84c10.35,0,18.76-8.48,18.76-18.98s-8.41-18.98-18.76-18.98-18.76,8.48-18.76,18.98,8.41,18.98,18.76,18.98Z"/><path class="cls-11" d="M389.6,348.6c8.59,0,15.53-7.05,15.53-15.71s-6.97-15.71-15.53-15.71-15.53,7.05-15.53,15.71,6.97,15.71,15.53,15.71Z"/><path class="cls-12" d="M389.64,336.1c1.72,0,3.13-1.4,3.13-3.16s-1.4-3.13-3.13-3.13-3.13,1.4-3.13,3.13,1.4,3.16,3.13,3.16Z"/><path class="cls-11" d="M371.92,348.25c-3.31-3.09-5.32-7.26-5.32-11.9"/><path class="cls-24" d="M404.49,204.46c3.09,1.37,4.31-1.47,8.59-.57,1.15,.25,2.01,.72,2.73,1.29v-25.88c0-4.42-3.88-7.98-8.66-7.98h-94.93c-4.78,0-8.66,3.6-8.66,7.98v31.99c2.08-2.98,5.68-4.89,9.7-4.89h7.58l4.35-7.66,1.29-2.37c-.25-.43-.32-.93-.25-1.44,.18-1.22,1.29-2.12,2.48-1.98,.22,0,.43,.11,.65,.18,.4-1.01,1.65-1.65,3.06-1.47,1.55,.18,2.66,1.37,2.48,2.59,0,.14-.07,.29-.11,.39l1.62,4.46v.14c0,.22-.18,.4-.4,.4h-.61v.47c0,1.47-1.29,2.66-2.91,2.66h-.86v3.6h6.97c6.36,0,11.54,4.74,11.54,10.64v7.37h9.63v-2.55c-1.19-.21-2.05-1.08-2.05-2.05v-3.77c0-1.4,1.47-2.52,3.27-2.52h1.47c2.34,0,4.24,1.47,4.24,3.27v1.65l3.42,5.97h6.54c.36-6.33,6.04-11.25,12.87-11.25h6.54v-4.85c-.58,.04-1.19-.07-1.73-.29-.65-.25-1.01-.86-.9-1.51l.61-4.28s.43-2.09,3.31-2.09c3.85,0,5.07,3.41,7.15,4.35h-.04Z"/><path class="cls-24" d="M407.11,252.77c4.78,0,8.66-3.6,8.66-7.98v-39.61c-.72-.57-1.58-1.04-2.73-1.29-4.28-.9-5.5,1.94-8.59,.57-2.08-.93-3.31-4.35-7.15-4.35-2.88,0-3.31,2.09-3.31,2.09l-.61,4.28c-.11,.65,.25,1.26,.9,1.51,.54,.22,1.11,.32,1.73,.29v4.85h-6.51c-6.87,0-12.51,4.96-12.87,11.25h-6.54l-3.41-5.97v-1.65c0-1.8-1.9-3.27-4.24-3.27h-1.47c-1.8,0-3.27,1.11-3.27,2.52v3.77c0,.97,.9,1.83,2.08,2.05v2.55h-9.67v-7.37c0-5.86-5.18-10.64-11.54-10.64h-6.97v-3.59h.86c1.62,0,2.91-1.19,2.91-2.66v-.47h.61c.22,0,.4-.18,.4-.4v-.14l-1.62-4.46s.07-.25,.11-.39c.18-1.22-.93-2.41-2.48-2.59-1.37-.18-2.66,.47-3.06,1.47-.22-.11-.43-.18-.65-.18-1.19-.14-2.3,.72-2.48,1.98-.07,.5,0,1.01,.25,1.44l-1.29,2.37-4.35,7.66h-7.59c-4.03,0-7.62,1.94-9.7,4.89v33.5c0,4.42,3.88,7.98,8.66,7.98h94.93Z"/><path class="cls-39" d="M166.59,231.71l1.12,17.97c-2.73,0-7.84,.25-10.28,.22-16.21-.29-25.2-14.27-25.16-25.85,0-3.06,8.05-4.89,12.29-5.64,1.54-.29,3.06,.4,3.95,1.65,7.8,11.04,18.04,11.61,18.04,11.61l.03,.04Z"/><path class="cls-17" d="M135.61,215.64l10.82,1.9s-.5,1.47-.93,2.05c-.76,1.11-1.87,2.05-3.24,2.52l-4.35,1.55c-1.73,.61-3.6,.47-5.14-.32,0,0-.79-.32-1.4-.93l4.28-6.76h-.04Z"/><path class="cls-17" d="M132.88,220.92c-.21,.14-.43,.32-.65,.5-.36,.29-.65,.65-.93,1.01-.4-.32-.72-.72-1.04-1.15-2.55-3.63-5.32-8.7-6-11.32-1.22-4.78,3.56-13.84,5.86-14.7,2.3-.86,7.51,12.72,9.56,13.12,1.72,.32,1.65-4.13,2.8-3.92,2.3,.39,3.56,6.43,4.06,10.75,.11,.83,0,1.62-.18,2.37h-.11c-.61,0-1.22,0-1.8,.18l-.57,.14-.47,.11-.57,.14h-.11l-2.8,.68-.57,.14-1.37,.32c-.86-4.46,1.83-8.63,1.87-8.66,.07-.11,.04-.25-.07-.32-.11-.07-.25-.04-.32,.07-.11,.18-2.84,4.38-1.94,9.02l-.79,.18-.32,.07-.57,.14-.25,.07-.47,.11c-.83,.18-1.58,.54-2.3,1.01l.07-.07Zm-2.37-11.72s.14-.18,.11-.29c-.76-1.51-3.27-7.98-3.56-9.09,0-.11-.14-.18-.29-.18-.11,0-.18,.14-.18,.29,.29,1.11,2.84,7.62,3.59,9.17,0,.07,.07,.11,.14,.11h.18Zm2.55-2.84s.14-.18,.11-.29c-.14-.29-.36-.75-.65-1.33-1.19-2.41-3.45-6.94-3.67-7.8,0-.11-.14-.18-.29-.18-.11,0-.18,.14-.18,.29,.22,.83,2.01,4.49,3.7,7.87,.29,.57,.5,1.01,.65,1.33,0,.07,.07,.11,.14,.11h.18Z"/><path class="cls-36" d="M127.05,199.82c.29,1.11,2.8,7.55,3.56,9.09,.07,.11,0,.25-.11,.29h-.18c-.07,0-.11-.07-.14-.11-.76-1.55-3.31-8.05-3.6-9.17,0-.11,.04-.25,.18-.29,.11,0,.25,.04,.29,.18Z"/><path class="cls-36" d="M132.52,204.75c.29,.58,.5,1.01,.65,1.33,.07,.11,0,.25-.11,.29h-.18c-.07,0-.11-.07-.14-.11-.14-.29-.36-.76-.65-1.33-1.69-3.38-3.49-7.05-3.7-7.87,0-.11,.04-.25,.18-.29,.11,0,.25,.04,.29,.18,.21,.86,2.44,5.36,3.67,7.8Z"/><path class="cls-36" d="M139.92,210.54s-2.73,4.24-1.87,8.66l-.43,.11c-.9-4.64,1.83-8.84,1.94-9.02,.07-.11,.22-.14,.32-.07,.11,.07,.14,.21,.07,.32h-.04Z"/><path class="cls-36" d="M137.69,219.7s-.04-.25-.07-.36l.43-.11s.04,.25,.07,.36c0,.11-.04,.25-.18,.29h-.11c-.07,0-.14-.07-.14-.18Z"/><path class="cls-15" d="M147.11,250.76s47.41-.18,56.69,.11l-13.16-5.86c-2.88-1.58-6.07-2.41-9.35-2.41h-17.69c-4.78,0-9.38,1.76-12.94,4.92l-3.52,3.2-.04,.04Z"/><path class="cls-22" d="M157.36,226.1l-3.63-2.84-15.03,19.12,3.49,3.67,15.17-19.95Z"/><path class="cls-27" d="M140.75,251.41h-3.88c-2.41-.04-4.35-2.01-4.35-4.46v-15.21c0-1.44-1.15-2.62-2.59-2.62h-4.21c-1.44,0-2.59,1.19-2.59,2.62v15.21c0,2.48,1.98,4.49,4.42,4.49h13.23l-.04-.04Z"/><path class="cls-2" d="M138.88,251.41h-3.88c-2.41-.04-4.35-2.01-4.35-4.46v-15.21c0-1.44-1.15-2.62-2.59-2.62h-4.21c-1.44,0-2.59,1.19-2.59,2.62v15.21c0,2.48,1.98,4.49,4.42,4.49h13.23l-.04-.04Z"/><path class="cls-21" d="M194.38,210s1.4,2.26,3.02,1.73c2.62-.86,2.95-4.1,1.29-5.28-1.58-1.15-2.8-.86-4.35-.61-2.05,.36-2.84-.11-2.84-.11,.18-.21-.25-2.48-2.88-2.26-2.37,.21-3.24,3.41-.5,5.39,2.37,1.73,6.29,1.11,6.29,1.11l-.04,.04Z"/><path class="cls-21" d="M196.32,213.16l.25-1.98-2.19-1.29c.22,1.47,1.94,3.27,1.94,3.27Z"/><path class="cls-13" d="M297.58,228.69c-.97-2.66-3.31-1.87-3.31-1.87"/><path class="cls-13" d="M299.85,227.75c-.97-2.66-3.31-2.01-3.31-2.01"/><path class="cls-13" d="M301.93,227.03c-.93-2.66-3.56-1.87-3.56-1.87"/><path class="cls-34" d="M323.36,260.46c.25-.21,.47-.39,.72-.65,0,0,3.31,10.39,13.91,16.97-.9,1.11-1.9,2.23-2.98,3.38-10.32-5.57-11.54-18.51-11.61-19.7h-.04Z"/><path class="cls-27" d="M296.93,233.51c13.84,1.69,14.74-7.37,14.74-7.37l.29-2.3,.79-6.36c.93-7.48,7.51-12.9,15.02-12.4h.04c11.4,.75,19.99,10.6,19.23,22l-2.7,39.79-.79,12.62c-15.06-5.36-19.48-19.66-19.48-19.66-6.65,6.26-17.87,4.93-17.87,4.93l8.38-11.83c-7.26-.5-13.26-5.36-15.46-12.29l-2.19-7.15v.04Z"/><path class="cls-30" d="M345.46,217.62s.07,.18,.11,.25c.07,.14,.11,.25,.14,.4,0,.07,.04,.11,.07,.18l-4.06,60.32s-.25-.11-.39-.18l4.1-61,.04,.04Z"/><path class="cls-30" d="M343.34,213.81s.25,.36,.36,.54l-4.28,63.3s-.25-.14-.36-.21l4.28-63.62Z"/><path class="cls-30" d="M312.03,256.8l.14-.25,.25-.36-.61,9.13c-.14,0-.25,.04-.39,.07l.58-8.59h.04Z"/><path class="cls-30" d="M309.37,260.82l.43-.65-.36,5.46s-.25,0-.39,.04l.32-4.85Z"/><path class="cls-30" d="M306.75,264.85l.43-.65-.11,1.62h-.39l.07-.97Z"/><path class="cls-30" d="M301.75,233.65s.25,0,.4-.04l-.79,11.68s-.25-.36-.36-.54l.75-11.11Z"/><path class="cls-30" d="M299.38,233.68h.39l-.5,7.4s0-.07-.04-.11c-.04-.11-.07-.22-.11-.36l-.18-.54,.43-6.4Z"/><path class="cls-30" d="M297.01,233.51s.25,0,.4,.04l-.07,1.26-.22-.72-.11-.32v-.25Z"/><path class="cls-30" d="M312.18,256.55l.25-.36,32.49,2.19v.39l-32.75-2.19v-.04Z"/><path class="cls-30" d="M313.69,254.28l.25-.36,31.17,2.08v.4l-31.42-2.12Z"/><path class="cls-30" d="M307.9,251.12l37.35,2.52v.4l-36.38-2.44c-.29-.11-.54-.25-.83-.36l-.14-.07v-.04Z"/><path class="cls-30" d="M336.55,275.85l7.23,.5v.39l-6.61-.43s-.25-.18-.36-.25l-.25-.18v-.04Z"/><path class="cls-30" d="M333.35,273.26l10.57,.72v.4l-10.1-.68c-.14-.14-.32-.29-.47-.43Z"/><path class="cls-30" d="M330.9,270.71l13.16,.9v.39l-12.8-.86c-.11-.14-.25-.29-.36-.39v-.04Z"/><path class="cls-30" d="M328.93,268.19l15.28,1.04v.4l-14.99-1.01c-.11-.14-.22-.29-.29-.39v-.04Z"/><path class="cls-30" d="M327.24,266.79l17.07,1.15v.4l-16.82-1.11c-.07-.14-.14-.29-.25-.39v-.04Z"/><path class="cls-30" d="M306.17,265.75l.25-.36,3.42,.22s-.25,0-.36,.04c-.14,0-.25,0-.4,.04-.76,.07-1.4,.11-1.9,.14l-.97-.07h-.04Z"/><path class="cls-30" d="M325.87,264.31l18.55,1.26v.39l-18.37-1.22c-.07-.14-.14-.29-.22-.4l.04-.04Z"/><path class="cls-30" d="M307.65,263.48l.25-.36,9.71,.65c-.29,.11-.61,.22-.9,.32l-9.06-.61Z"/><path class="cls-30" d="M324.79,261.87l19.84,1.33v.4l-19.66-1.33c-.07-.14-.11-.29-.18-.4Z"/><path class="cls-30" d="M309.16,261.18l.22-.36,12.37,.83-.22,.14s-.22,.14-.36,.22l-12.04-.83h.04Z"/><path class="cls-30" d="M310.67,258.92l.25-.36,33.9,2.27v.39l-34.11-2.3h-.04Z"/><path class="cls-26" d="M335,206.91s-2.62-1.29-6.61-1.62c-6.18-.54-10.14,2.55-10.14,2.55l3.02-4.74c.25-.43,.72-.68,1.22-.68h8.45c.47,0,.9,.22,1.19,.58l2.88,3.92Z"/><path class="cls-11" d="M335.58,206.94s-2.7-1.29-6.83-1.65c-6.4-.54-10.57,2.45-10.57,2.45"/><path class="cls-11" d="M313.72,253.13c15.06,.86,21.14-21.1,21.14-21.1"/><path class="cls-38" d="M321.63,200.58l6.11-5.54,3.31,7.33h-8.55c-.14,0-.29,0-.43,.07l-.43-1.9v.04Z"/><path class="cls-34" d="M321.63,200.58l3.45-3.13,.11,1.08c0,.36,.04,.72,0,1.12v.61c-.07,.9-.43,1.65-1.04,2.19h-1.65s-.29,0-.43,.07l-.43-1.9v-.04Z"/><path d="M324.72,194.29s1.04,2.23,2.48,1.83c2.3-.68,2.77-3.74,1.47-5-1.26-1.19-2.34-1.01-3.7-.83-1.76,.22-2.45-.25-2.45-.25-.76-.43-1.15-.68-2.3-.43-2.01,.72-1.55,2.48-.83,3.27,1.9,1.8,5.32,1.44,5.32,1.44v-.04Z"/><path class="cls-38" d="M324.58,194.29h.72c.93,.07,1.65,.93,1.55,1.87-.07,.93-.93,1.65-1.87,1.55h-.18v.65c-.07,1.51-1.29,2.66-2.8,2.7-.76,0-1.47-.04-2.19-.14,0,0,.07-2.52-1.76-3.52,0,0,.11-3.63,1.22-4.75,0,0,1.4,1.8,5.36,1.62l-.04,.04Z"/><path class="cls-14" d="M319.55,194.07c.86,0,1.76,.65,1.76,.65"/><path class="cls-34" d="M320.19,196.01s.32-.22,.32-.47-.11-.5-.29-.5-.32,.22-.32,.47,.11,.5,.29,.5Z"/><path class="cls-14" d="M319.58,198.93c.97,0,1.04-.57,1.04-.57"/><path class="cls-14" d="M324.97,195.19c.43,0,.72,.4,.72,.83"/><path class="cls-34" d="M387.02,261.97c.25-.22,.47-.4,.72-.65,0,0,3.31,10.39,13.91,16.97-.9,1.11-1.9,2.23-2.98,3.38-10.32-5.57-11.54-18.51-11.61-19.7h-.04Z"/><path class="cls-27" d="M365.23,268.05c6.43-3.56,10.07-40.4,10.07-40.4l.29-2.3,.79-6.36c.93-7.48,7.51-12.9,15.03-12.4h.04c11.4,.76,19.99,10.6,19.23,22l-2.7,39.79-.79,12.62c-15.06-5.36-19.48-19.66-19.48-19.66-6.65,6.26-19.3,6.94-19.3,6.94l-3.16-.22Z"/><path class="cls-30" d="M390.9,268.3l17.07,1.15v.39l-16.82-1.11c-.07-.14-.14-.29-.25-.39v-.04Z"/><path class="cls-27" d="M398.66,208.41s-2.62-1.29-6.61-1.62c-6.18-.54-10.14,2.55-10.14,2.55l3.02-4.75c.25-.43,.72-.68,1.22-.68h8.45c.47,0,.9,.22,1.19,.57l2.88,3.92Z"/><path class="cls-11" d="M399.24,208.45s-2.7-1.29-6.83-1.65c-6.4-.54-10.57,2.44-10.57,2.44"/><path class="cls-11" d="M383.64,255.07c12.8,.54,16.43-21.42,16.43-21.42"/><path class="cls-23" d="M385.33,202.09l6.11-5.54,3.31,7.33h-8.55c-.14,0-.29,0-.43,.07l-.43-1.9v.04Z"/><path class="cls-34" d="M385.33,202.09l3.45-3.13,.11,1.29v1.47c-.11,.9-.43,1.65-1.08,2.19h-1.65s-.29,0-.43,.07l-.43-1.9h.04Z"/><path class="cls-32" d="M388.38,195.8s1.04,2.23,2.48,1.83c2.3-.68,2.77-3.74,1.47-5-1.26-1.19-2.34-1.01-3.7-.83-1.76,.22-2.44-.25-2.44-.25,.18-.22-.04-2.41-2.34-2.34-2.05,.07-2.98,3.09-.79,5.14,1.9,1.8,5.32,1.44,5.32,1.44Z"/><path class="cls-23" d="M388.24,195.8h.72c.93,.07,1.65,.93,1.55,1.87-.07,.93-.93,1.65-1.87,1.54h-.18v.65c-.07,1.51-1.29,2.66-2.8,2.7-.76,0-1.47-.04-2.19-.14,0,0,.07-2.52-1.76-3.52,0,0,.11-3.63,1.22-4.74,0,0,1.4,1.8,5.36,1.62l-.04,.04Z"/><path class="cls-14" d="M383.24,195.58c.86,0,1.76,.65,1.76,.65"/><path class="cls-34" d="M383.85,197.52s.32-.22,.32-.47-.11-.5-.29-.5-.32,.22-.32,.47,.11,.5,.29,.5Z"/><path class="cls-14" d="M383.24,200.43c.97,0,1.04-.57,1.04-.57"/><path class="cls-14" d="M388.63,196.7c.43,0,.72,.39,.72,.83"/><path class="cls-31" d="M368.68,267.62c-.07,.22-.18,.43-.25,.65l21.89,1.47,14.85,1.01c3.63,.25,11.11-3.02,11.36-6.65v-63.91c.21-3.63-2.52-6.76-6.15-7.01-3.63-.25-6.76,2.52-7.01,6.11l-.97,14.52c-.11,1.69-1.8,24.52-8.2,37.42-1.26,2.55-3.6,4.39-6.36,5.03-1.69,.39-3.77,.83-5.86,1.11-5.93,.86-11.11,4.64-13.3,10.17v.07Z"/><path class="cls-31" d="M308.55,264.45c-.07,.22-.18,.43-.25,.65l21.89,1.47,14.85,1.01c3.63,.25,6.76-2.52,7.01-6.11l4.35-64.45c.25-3.63-2.52-6.76-6.11-7.01-3.63-.25-6.76,2.52-7.01,6.11l-.97,14.52c-.11,1.69-1.8,24.51-8.2,37.42-1.26,2.55-3.59,4.39-6.36,5.03-1.69,.4-3.77,.83-5.86,1.11-5.93,.86-11.11,4.64-13.3,10.17l-.04,.07Z"/><path class="cls-27" d="M374.18,236.99c3.7,3.41-5.75,31.31-5.75,31.31l-7.73-.25,.54-8.09c.07-.61,.18-1.22,.29-1.8,1.01-5.57,4.6-10.28,9.45-13.23,.5-.29,.76-.58,.76-.58,2.16-1.98,2.48-7.33,2.48-7.33l-.04-.04Z"/><path class="cls-12" d="M113.82,354.68h60.28"/><path class="cls-18" d="M303.51,189.51h-12.22v98.28h132.24l.72-96.12h-8.45v53.27c0,3.99-3.23,7.23-7.22,7.23h-97.31c-4.28,0-7.77-3.49-7.77-7.76v-54.89Z"/><path class="cls-28" d="M506.43,331.96c16-8.74,36.02-2.84,44.75,13.12,1.08,1.98,1.94,4.06,2.62,6.22l-162.04-.39c11.54-27,42.38-17.11,42.38-17.11l.07,.07c-3.09-12.15-.04-25.56,9.35-35.15,14.31-14.67,37.81-14.92,52.44-.61,8.99,8.77,12.9,21.53,10.43,33.86Z"/><path class="cls-8" d="M472.14,328.4v22.75"/><path class="cls-8" d="M478.5,341.52l-6.36,4.28"/><path class="cls-7" d="M270.8,110.39V33.68"/><path class="cls-29" d="M274.07,16.79c.5-7.33-.11-13.73-.79-16.79-1.11,2.95-2.59,9.24-3.09,16.57-.43,6.22-.07,11.79,.5,15.17,0,.14,.14,.29,.29,.32,.22,.07,.47-.07,.54-.29,1.01-3.31,2.16-8.81,2.59-15.03l-.04,.04Z"/><path class="cls-29" d="M256.21,38.97c-6.36,3.74-11.29,7.8-13.41,10.1,3.05-.75,8.84-3.16,15.2-6.87,5.75-3.34,9.85-6.51,12.04-8.45,.18-.14,.25-.36,.14-.58-.11-.29-.4-.43-.68-.36-4.64,1.62-9.1,3.67-13.3,6.15Z"/><path class="cls-29" d="M284.75,37.49c-3.88-2.05-7.98-3.63-12.22-4.71-.18-.04-.4,0-.5,.18-.18,.22-.14,.54,.07,.72,2.44,1.98,6.47,4.53,11.25,7.05,5.9,3.06,11.29,5.18,14.09,5.61-1.98-2.05-6.79-5.75-12.69-8.84Z"/><path class="cls-35" d="M271.02,34.18c-.93,0-1.73-.75-1.73-1.73s.76-1.73,1.73-1.73,1.73,.75,1.73,1.73-.76,1.73-1.73,1.73Z"/><path class="cls-7" d="M307.18,110.39V54.67"/><path class="cls-29" d="M309.91,40.69c.43-6.33-.07-11.83-.68-14.45-.94,2.52-2.23,7.94-2.66,14.27-.36,5.36-.04,10.14,.43,13.05,0,.14,.11,.25,.25,.29,.18,.04,.4-.07,.47-.25,.86-2.84,1.83-7.55,2.23-12.9h-.04Z"/><path class="cls-29" d="M294.56,59.78c-5.46,3.2-9.71,6.72-11.54,8.7,2.62-.65,7.58-2.7,13.05-5.9,4.92-2.88,8.48-5.61,10.35-7.26,.14-.11,.18-.32,.14-.5-.07-.25-.36-.4-.61-.32-3.99,1.37-7.8,3.16-11.43,5.28h.04Z"/><path class="cls-29" d="M319.08,58.52c-3.34-1.76-6.87-3.13-10.5-4.06-.18-.04-.36,0-.47,.14-.14,.18-.11,.47,.07,.61,2.09,1.69,5.57,3.92,9.67,6.04,5.07,2.62,9.7,4.42,12.11,4.82-1.73-1.76-5.86-4.96-10.93-7.58l.04,.04Z"/><path class="cls-35" d="M307.29,55.68c-.83,0-1.47-.65-1.47-1.47s.65-1.47,1.47-1.47,1.47,.65,1.47,1.47-.65,1.47-1.47,1.47Z"/><path class="cls-7" d="M374,110.39V36.77"/><path class="cls-29" d="M376.77,20.88c.47-6.83-.11-12.76-.76-15.6-1.04,2.73-2.41,8.59-2.88,15.42-.4,5.79-.04,10.96,.47,14.13,0,.14,.14,.29,.29,.32,.21,.07,.43-.07,.5-.25,.93-3.09,2.01-8.16,2.41-13.98l-.04-.04Z"/><path class="cls-29" d="M360.13,41.52c-5.89,3.45-10.5,7.26-12.47,9.38,2.84-.68,8.23-2.95,14.16-6.4,5.32-3.13,9.17-6.04,11.18-7.84,.14-.14,.22-.36,.14-.54-.11-.25-.36-.4-.65-.32-4.31,1.47-8.45,3.41-12.36,5.72Z"/><path class="cls-29" d="M386.65,40.15c-3.59-1.91-7.44-3.38-11.36-4.39-.18-.04-.36,0-.5,.18-.18,.22-.14,.5,.07,.68,2.27,1.83,6.04,4.24,10.5,6.54,5.5,2.84,10.5,4.82,13.12,5.21-1.83-1.91-6.33-5.36-11.79-8.2l-.04-.04Z"/><path class="cls-35" d="M373.89,37.1c-.9,0-1.58-.72-1.58-1.58s.72-1.58,1.58-1.58,1.58,.72,1.58,1.58-.72,1.58-1.58,1.58Z"/><path class="cls-20" d="M5.99,116.14c-1.83-.79-3.38-2.08-4.46-3.78-2.91-4.6-1.55-10.68,3.06-13.59,4.6-2.91,10.68-1.55,13.59,3.06,10.6-6.9,24.01-7.84,35.44-2.52,.29-.97,.65-1.91,1.08-2.8,5.68-12.55,20.45-18.12,33-12.4,8.73-15.71,27.61-26.6,49.5-26.6,26.74,0,48.99,16.21,53.7,37.64,5.03-4.1,11.83-6.65,19.3-6.65,15.49,0,28.04,10.82,28.04,24.19,0,10.17-7.3,18.91-17.61,22.47,0,.29,.04,.57,.04,.86,0,5.43-4.42,9.85-9.85,9.85s-9.85-4.42-9.85-9.85v-.47c-6.43-1.94-11.83-5.82-15.17-10.86-9.06,14.92-27.46,25.13-48.67,25.13-19.66,0-36.92-8.77-46.55-21.96-5.36,3.34-11.75,4.57-17.94,3.38-1.51,16.68-16.39,29.76-34.58,29.76-19.16,0-34.69-14.56-34.69-32.53,0-4.24,.86-8.41,2.55-12.29l.07-.04Z"/><path class="cls-20" d="M87.98,139.04c4.39-2.34,9.81-.72,12.15,3.63,.32,.61,.58,1.22,.76,1.87-.14,.07-.29,.18-.43,.25-4.39,2.34-9.81,.72-12.15-3.63-.32-.61-.58-1.22-.75-1.87,.14-.07,.29-.18,.43-.25Z"/><path class="cls-20" d="M35.71,171.86c4.39-2.34,9.81-.72,12.15,3.63,.32,.61,.58,1.22,.75,1.87-.14,.07-.29,.18-.43,.25-4.39,2.34-9.81,.72-12.15-3.63-.32-.61-.58-1.22-.75-1.87,.14-.07,.29-.18,.43-.25Z"/><path class="cls-10" d="M84.1,183.61c0-5.46-5.46-8.16-11.04-8.2-17.61-.11-21.64-19.02-21.64-19.02"/><path class="cls-7" d="M53.62,354.57V208.95c0-5.21,4.24-9.45,9.45-9.42h9.31c5.61,.04,10.14-4.49,10.14-10.07,0-6.18,3.81-11.68,9.6-13.84,22.43-8.27,30.99-27.39,30.99-27.39"/><path class="cls-10" d="M111.42,163.66c3.16-3.02,7.4-4.71,11.79-4.71h29.87c6,0,10.89-4.89,10.89-10.89v-4.49"/><path class="cls-33" d="M75.18,107.84c1.99,0,3.59-1.61,3.59-3.59s-1.61-3.6-3.59-3.6-3.59,1.61-3.59,3.6,1.61,3.59,3.59,3.59Z"/><path class="cls-33" d="M161.46,100.65c1.99,0,3.59-1.61,3.59-3.59s-1.61-3.59-3.59-3.59-3.6,1.61-3.6,3.59,1.61,3.59,3.6,3.59Z"/><path class="cls-33" d="M139.89,122.22c1.99,0,3.6-1.61,3.6-3.6s-1.61-3.6-3.6-3.6-3.59,1.61-3.59,3.6,1.61,3.6,3.59,3.6Z"/><path class="cls-33" d="M107.54,125.81c1.99,0,3.59-1.61,3.59-3.59s-1.61-3.6-3.59-3.6-3.6,1.61-3.6,3.6,1.61,3.59,3.6,3.59Z"/><path class="cls-33" d="M204.59,125.81c1.99,0,3.6-1.61,3.6-3.59s-1.61-3.6-3.6-3.6-3.6,1.61-3.6,3.6,1.61,3.59,3.6,3.59Z"/><path class="cls-33" d="M218.97,111.43c1.99,0,3.6-1.61,3.6-3.6s-1.61-3.59-3.6-3.59-3.59,1.61-3.59,3.59,1.61,3.6,3.59,3.6Z"/><path class="cls-33" d="M157.86,79.08c1.99,0,3.6-1.61,3.6-3.59s-1.61-3.59-3.6-3.59-3.6,1.61-3.6,3.59,1.61,3.59,3.6,3.59Z"/><path class="cls-33" d="M118.32,104.24c1.99,0,3.6-1.61,3.6-3.6s-1.61-3.59-3.6-3.59-3.59,1.61-3.59,3.59,1.61,3.6,3.59,3.6Z"/><path class="cls-33" d="M39.24,118.62c1.99,0,3.59-1.61,3.59-3.6s-1.61-3.59-3.59-3.59-3.59,1.61-3.59,3.59,1.61,3.6,3.59,3.6Z"/><path class="cls-33" d="M53.62,136.59c1.99,0,3.59-1.61,3.59-3.59s-1.61-3.6-3.59-3.6-3.59,1.61-3.59,3.6,1.61,3.59,3.59,3.59Z"/><path class="cls-33" d="M28.45,140.19c1.99,0,3.59-1.61,3.59-3.6s-1.61-3.59-3.59-3.59-3.59,1.61-3.59,3.59,1.61,3.6,3.59,3.6Z"/><path d="M327.45,190.33l.79,4.35c.36,2.05,1.29,4.49,3.6,4.89,1.15,.21,2.7-.07,3.63-.83-.32,.25-.83,.07-1.04-.29-.22-.36-.22-.75-.22-1.15,.04-1.44,.25-2.91,.22-4.35,0-.93-.18-1.94-.75-2.7-.9-1.26-2.84-1.73-4.28-1.22-.54,.18-1.04,.47-1.47,.79-.07,.04-.54,.4-.54,.47l.07,.04Z"/></svg>